{
.appVersion = "3434";
.formatVersion = 3;
DisplayStrings = (
"ю"
);
axes = (
{
name = Weight;
tag = wght;
}
);
customParameters = (
{
name = isFixedPitch;
value = 0;
}
);
date = "2025-10-03 19:40:11 +0000";
familyName = "Lilex Duo";
fontMaster = (
{
axesValues = (
100
);
customParameters = (
{
name = winAscent;
value = 1150;
},
{
name = typoAscender;
value = 1025;
},
{
name = hheaAscender;
value = 1025;
},
{
name = winDescent;
value = 427;
},
{
name = hheaDescender;
value = -275;
},
{
name = typoDescender;
value = -275;
},
{
name = typoLineGap;
value = 0;
},
{
name = hheaLineGap;
value = 0;
},
{
name = underlineThickness;
value = 60;
},
{
name = underlinePosition;
value = -140;
},
{
name = strikeoutPosition;
value = 304;
},
{
name = subscriptXSize;
value = 700;
},
{
name = subscriptYSize;
value = 650;
},
{
name = subscriptYOffset;
value = 140;
},
{
name = superscriptXSize;
value = 700;
},
{
name = superscriptYOffset;
value = 477;
},
{
name = superscriptYSize;
value = 650;
},
{
name = "Master Icon Glyph Name";
value = T;
},
{
name = strikeoutSize;
value = 16;
}
);
iconName = Light;
id = "C7B35BE3-AA13-4B78-992E-F05F1268D666";
metricValues = (
{
over = 0;
pos = 780;
},
{
over = 12;
pos = 698;
},
{
over = -12;
},
{
over = 0;
pos = -220;
},
{
over = 12;
pos = 516;
}
);
name = Thin;
stemValues = (
19,
17,
21,
24,
58
);
},
{
axesValues = (
400
);
customParameters = (
{
name = winAscent;
value = 1150;
},
{
name = typoAscender;
value = 1025;
},
{
name = hheaAscender;
value = 1025;
},
{
name = winDescent;
value = 427;
},
{
name = hheaDescender;
value = -275;
},
{
name = typoDescender;
value = -275;
},
{
name = typoLineGap;
value = 0;
},
{
name = hheaLineGap;
value = 0;
},
{
name = underlineThickness;
value = 60;
},
{
name = underlinePosition;
value = -140;
},
{
name = strikeoutPosition;
value = 304;
},
{
name = subscriptXSize;
value = 700;
},
{
name = subscriptYSize;
value = 650;
},
{
name = subscriptYOffset;
value = 140;
},
{
name = superscriptXSize;
value = 700;
},
{

glyphs = (
{
glyphname = AE;
lastChange = "2025-11-13 10:00:40 +0000";
layers = (
{
anchors = (
{
name = bottom;
pos = (300,0);
},
{
name = ogonek;
pos = (432,0);
},
{
name = top;
pos = (364,698);
}
);
layerId = "055264FC-C366-4C37-95B8-CB5161C9C36E";
shapes = (
{
closed = 1;
nodes = (
(474,0,l,{
name = hr00;
}),
(826,0,l),
(826,123,l),
(612,123,l),
(612,292,l),
(816,292,l),
(816,415,l),
(612,415,l),
(612,575,l),
(826,575,l),
(826,698,l),
(378,698,l),
(38,0,l),
(184,0,l),
(263,168,l),
(474,168,l)
);
},
{
closed = 1;
nodes = (
(474,575,l),
(474,279,l),
(314,279,l),
(453,575,l)
);
}
);
width = 900;
},
{
anchors = (
{
name = bottom;
pos = (300,0);
},
{
name = ogonek;
pos = (442,0);
},
{
name = top;
pos = (393,698);
}
);
layerId = "A5F3D33E-00A1-4213-AAE8-48E0A2B2F36F";
shapes = (
{
closed = 1;
nodes = (
(456,0,l,{
name = hr00;
}),
(850,0,l),
(850,73,l),
(536,73,l),
(536,317,l),
(838,317,l),
(838,390,l),
(536,390,l),
(536,625,l),
(850,625,l),
(850,698,l),
(399,698,l),
(42,0,l),
(129,0,l),
(226,201,l),
(456,201,l)
);
},
{
closed = 1;
nodes = (
(456,625,l),
(456,270,l),
(257,270,l),
(441,625,l)
);
}
);
width = 900;
},
{
anchors = (
{
name = bottom;
pos = (300,0);
},
{
name = ogonek;
pos = (443,0);
},
{
name = top;
pos = (427,698);
}
);
layerId = "C7B35BE3-AA13-4B78-992E-F05F1268D666";
shapes = (
{
closed = 1;
nodes = (
(475,0,l,{
name = hr00;
}),
(807,0,l),
(807,20,l),
(497,20,l),
(497,344,l),
(793,344,l),
(793,364,l),
(497,364,l),
(497,678,l),
(807,678,l),
(807,698,l),
(417,698,l),
(64,0,l),
(89,0,l),
(207,234,l),
(475,234,l)
);
},
{
closed = 1;
nodes = (
(475,678,l),
(475,253,l),
(217,253,l),
(431,678,l)
);
}
);
width = 900;
}
);
unicode = 198;
},
{
glyphname = M;
lastChange = "2025-11-13 12:16:28 +0000";
layers = (
{
anchors = (
{
name = bottom;
pos = (450,0);
},
{
name = top;
pos = (450,698);
}
);
layerId = "055264FC-C366-4C37-95B8-CB5161C9C36E";
shapes = (
{
closed = 1;
nodes = (
(251,0,l),
(251,465,l),
(254,465,l),
(307,355,l),
(450,109,l),
(596,356,l),
(647,458,l),
(650,458,l),
(650,0,l),
(793,0,l),
(793,698,l),
(631,698,l),
(452,371,l),
(452,371,l),
(269,698,l),
(108,698,l),
(108,0,l)
);
}
);
width = 900;
},
{
anchors = (
{
name = bottom;
pos = (450,0);
},
{
name = top;
pos = (450,698);
}
);
layerId = "A5F3D33E-00A1-4213-AAE8-48E0A2B2F36F";
shapes = (
{
closed = 1;
nodes = (
(200,0,l),
(200,587,l),
(225,587,l),
(323,404,l),
(450,167,l),
(588,424,l),
(676,588,l),
(701,588,l),
(701,0,l),
(783,0,l),
(783,698,l),
(653,698,l),
(452,322,l),
(448,322,l),
(248,698,l),
(118,698,l),
(118,0,l)
);
}
);
width = 900;
},
{
anchors = (
{
name = bottom;
pos = (450,0);
},
{
name = top;
pos = (450,698);
}
);
layerId = "C7B35BE3-AA13-4B78-992E-F05F1268D666";
shapes = (
{
closed = 1;
nodes = (
(181,0,l),
(181,673,l),
(184,673,l),
(327,438,l),
(450,236,l),
(573,438,l),
(716,673,l),
(719,673,l),
(719,0,l),
(740,0,l),
(740,698,l),
(708,698,l),
(449,278,l),
(449,278,l),
(193,698,l),
(160,698,l),
(160,0,l)
);
}
);
width = 900;
}
);
unicode = 77;
},
{
glyphname = OE;
lastChange = "2025-11-13 09:58:46 +0000";
layers = (
{
layerId = "C7B35BE3-AA13-4B78-992E-F05F1268D666";
shapes = (
{
closed = 1;
nodes = (
(401.667,-12,o),
(452.333,-5.333,o),
(483,0,c),
(853,0,l),
(853,20,l),
(504,20,l),
(504,344,l),
(841,344,l),
(841,364,l),
(504,364,l),
(504,678,l),
(853,678,l),
(853,698,l),
(483,698,l),
(452.333,703.333,o),
(401.667,710,o),
(343,710,cs),
(157.23,710,o),
(53,590.849,o),
(53,349,cs),
(53,108.976,o),
(157.4,-12,o),
(343,-12,cs)
);
},
{
closed = 1;
nodes = (
(176.333,8,o),
(76,117.333,o),
(76,328,cs),
(76,370,ls),
(76,580.667,o),
(176.333,690,o),
(343,690,cs),
(401.667,690,o),
(451,682.667,o),
(483,676,c),
(483,22,l),
(451,15.333,o),
(401.667,8,o),
(343,8,cs)
);
}
);
width = 900;
},
{
layerId = "A5F3D33E-00A1-4213-AAE8-48E0A2B2F36F";
shapes = (
{
closed = 1;
nodes = (
(364.667,-12,o),
(408.333,-8,o),
(443,0,c),
(829,0,l),
(829,73,l),
(523,73,l),
(523,317,l),
(810,317,l),
(810,390,l),
(523,390,l),
(523,625,l),
(829,625,l),
(829,698,l),
(443,698,l),
(408.333,706,o),
(364.667,710,o),
(338,710,cs),
(124,710,o),
(51,556,o),
(51,349,cs),
(51,133,o),
(132,-12,o),
(338,-12,cs)
);
},
{
closed = 1;
nodes = (
(210,59,o),
(137,141.667,o),
(137,271,cs),
(137,427,ls),
(137,556.333,o),
(210,636,o),
(338,636,cs),
(375,636,o),
(412,631,o),
(443,620,c),
(443,75,l),
(412.333,64.333,o),
(375.333,59,o),
(338,59,cs)
);
}
);
width = 900;
},
{
layerId = "055264FC-C366-4C37-95B8-CB5161C9C36E";
shapes = (
{
closed = 1;
nodes = (
(352,-12,o),
(385,-8,o),
(412,0,c),
(858,0,l,{
name = hr00;
}),
(858,123,l),
(562,123,l),
(562,292,l),
(806,292,l),
(806,415,l),
(562,415,l),
(562,575,l),
(858,575,l),
(858,698,l),
(412,698,l),
(382,707,o),
(355,709,o),
(317,710,cs),
(130,714,o),
(44,577,o),
(44,349,cs),
(44,121,o),
(130,-12,o),
(317,-12,cs,{
name = hr00;
})
);
},
{
closed = 1;
nodes = (
(232,109,o),
(204,176,o),
(204,288,cs),
(204,410,ls),
(204,522,o),
(232,589,o),
(317,589,cs),
(355,589,o),
(379,584,o),
(412,577,c),
(412,120,l),
(379,115,o),
(355,109,o),
(317,109,cs)
);
}
);
width = 900;
}
);
unicode = 338;
},
{
glyphname = W;
kernLeft = W;
kernRight = W;
lastChange = "2025-11-13 15:11:16 +0000";
layers = (
{
layerId = "A5F3D33E-00A1-4213-AAE8-48E0A2B2F36F";
shapes = (
{
closed = 1;
nodes = (
(449,604,l),
(451,604,l),
(515,348,l),
(606,0,l),
(699,0,l),
(878,698,l),
(792,698,l),
(713,362,l),
(653,102,l),
(650,102,l),
(585,362,l),
(500,698,l),
(404,698,l),
(316,362,l),
(251,101,l),
(249,101,l),
(191,362,l),
(116,698,l),
(27,698,l),
(197,0,l),
(290,0,l),
(383,348,l)
);
}
);
userData = {
assembly = "NPUSHB[ ]	/* 20 values pushed */
20 8 11 17 5 1 10 114 17 10 114 14 4 114 8 4 114 2 4 114
SVTCA[0]	/* SetFreedomAndProjectionVectorToAxis */
CALL[ ]	/* CallFunction */
CALL[ ]	/* CallFunction */
CALL[ ]	/* CallFunction */
CALL[ ]	/* CallFunction */
CALL[ ]	/* CallFunction */
SHP[0]	/* ShiftPointByLastPoint */
SRP1[ ]	/* SetRefPoint1 */
SHP[1]	/* ShiftPointByLastPoint */
SRP1[ ]	/* SetRefPoint1 */
SHP[1]	/* ShiftPointByLastPoint */
IUP[0]	/* InterpolateUntPts */
IUP[1]	/* InterpolateUntPts */";
};
width = 900;
},
{
layerId = "C7B35BE3-AA13-4B78-992E-F05F1268D666";
shapes = (
{
closed = 1;
nodes = (
(448,674,l),
(451,674,l),
(512,457,l),
(640,0,l),
(670,0,l),
(856,698,l),
(833,698,l),
(714,248,l),
(656,31,l),
(653,31,l),
(592,248,l),
(466,698,l),
(434,698,l),
(308,248,l),
(247,31,l),
(244,31,l),
(187,248,l),
(68,698,l),
(44,698,l),
(230,0,l),
(260,0,l),
(388,457,l)
);
}
);
width = 900;
},
{
layerId = "055264FC-C366-4C37-95B8-CB5161C9C36E";
shapes = (
{
closed = 1;
nodes = (
(448,531,l),
(451,531,l),
(485,378,l),
(573,0,l),
(746,0,l),
(908,698,l),
(764,698,l),
(697,363,l),
(660,169,l),
(657,169,l),
(614,363,l),
(536,698,l),
(370,698,l),
(293,363,l),
(249,169,l),
(246,169,l),
(209,363,l),
(143,698,l),
(-7,698,l),
(151,0,l),
(325,0,l),
(413,378,l)
);
}
);
width = 900;
}
);
note = W;
unicode = 87;
},
{
export = 0;
glyphname = E;
lastChange = "2025-11-13 09:57:39 +0000";
layers = (
{
anchors = (
{
name = bottom;
pos = (305,0);
},
{
name = bottomright;
pos = (520,0);
},
{
name = top;
pos = (305,698);
}
);
associatedMasterId = "C7B35BE3-AA13-4B78-992E-F05F1268D666";
layerId = "CBFCB52A-05D2-4C5C-BE87-F0778CA5D309";
name = "#instance";
shapes = (
{
closed = 1;
nodes = (
(520,0,l,{
name = hr00;
}),
(520,73,l),
(174,73,l),
(174,317,l),
(508,317,l),
(508,390,l),
(174,390,l),
(174,625,l),
(520,625,l),
(520,698,l),
(90,698,l),
(90,0,l)
);
}
);
width = 600;
},
{
anchors = (
{
name = bottom;
pos = (303,0);
},
{
name = bottomright;
pos = (526,0);
},
{
name = top;
pos = (303,698);
}
);
layerId = "055264FC-C366-4C37-95B8-CB5161C9C36E";
shapes = (
{
closed = 1;
nodes = (
(526,0,l,{
name = hr00;
}),
(526,123,l),
(230,123,l),
(230,292,l),
(516,292,l),
(516,415,l),
(230,415,l),
(230,575,l),
(526,575,l),
(526,698,l),
(80,698,l),
(80,0,l)
);
}
);
width = 600;
},
{
anchors = (
{
name = bottom;
pos = (305,0);
},
{
name = bottomright;
pos = (520,0);
},
{
name = top;
pos = (305,698);
}
);
layerId = "A5F3D33E-00A1-4213-AAE8-48E0A2B2F36F";
shapes = (
{
closed = 1;
nodes = (
(520,0,l,{
name = hr00;
}),
(520,73,l),
(174,73,l),
(174,317,l),
(508,317,l),
(508,390,l),
(174,390,l),
(174,625,l),
(520,625,l),
(520,698,l),
(90,698,l),
(90,0,l)
);
}
);
width = 600;
},
{
anchors = (
{
name = bottom;
pos = (307,0);
},
{
name = bottomright;
pos = (514,0);
},
{
name = top;
pos = (309,698);
}
);
layerId = "C7B35BE3-AA13-4B78-992E-F05F1268D666";
shapes = (
{
closed = 1;
nodes = (
(514,0,l,{
name = hr00;
}),
(514,20,l),
(130,20,l),
(130,344,l),
(500,344,l),
(500,364,l),
(130,364,l),
(130,678,l),
(514,678,l),
(514,698,l),
(108,698,l),
(108,0,l)
);
}
);
width = 600;
}
);
unicode = 69;
},
{
export = 0;
glyphname = O;
lastChange = "2025-11-13 09:57:42 +0000";
layers = (
{
anchors = (
{
name = bottom;
pos = (300,0);
},
{
name = top;
pos = (300,698);
}
);
layerId = "055264FC-C366-4C37-95B8-CB5161C9C36E";
shapes = (
{
closed = 1;
nodes = (
(487,-12,o),
(573,121,o),
(573,349,cs),
(573,577,o),
(487,710,o),
(300,710,cs),
(113,710,o),
(27,577,o),
(27,349,cs),
(27,121,o),
(113,-12,o),
(300,-12,cs,{
name = hr00;
})
);
},
{
closed = 1;
nodes = (
(215,109,o),
(187,176,o),
(187,288,cs),
(187,410,ls),
(187,522,o),
(215,589,o),
(300,589,cs),
(385,589,o),
(413,522,o),
(413,410,cs),
(413,289,l),
(413,176,o),
(385,109,o),
(300,109,cs)
);
}
);
width = 600;
},
{
anchors = (
{
name = bottom;
pos = (300,0);
},
{
name = top;
pos = (300,698);
}
);
layerId = "A5F3D33E-00A1-4213-AAE8-48E0A2B2F36F";
shapes = (
{
closed = 1;
nodes = (
(470,-12,o),
(544,121,o),
(544,349,cs),
(544,577,o),
(470,710,o),
(300,710,cs),
(130,710,o),
(56,577,o),
(56,349,cs),
(56,121,o),
(130,-12,o),
(300,-12,cs,{
name = hr00;
})
);
},
{
closed = 1;
nodes = (
(189,61,o),
(145,152,o),
(145,292,cs),
(145,406,ls),
(145,546,o),
(189,637,o),
(300,637,cs),
(411,637,o),
(455,546,o),
(455,406,cs),
(455,292,l),
(455,152,o),
(411,61,o),
(300,61,cs)
);
}
);
width = 600;
},
{
anchors = (
{
name = bottom;
pos = (300,0);
},
{
name = top;
pos = (300,698);
}
);
layerId = "C7B35BE3-AA13-4B78-992E-F05F1268D666";
shapes = (
{
closed = 1;
nodes = (
(446,-12,o),
(529,93,o),
(529,349,cs),
(529,605,o),
(446,710,o),
(300,710,cs),
(154,710,o),
(71,605,o),
(71,349,cs),
(71,93,o),
(154,-12,o),
(300,-12,cs,{
name = hr00;
})
);
},
{
closed = 1;
nodes = (
(167,8,o),
(95,112,o),
(95,317,cs),
(95,381,ls),
(95,586,o),
(167,690,o),
(300,690,cs),
(433,690,o),
(505,586,o),
(505,381,cs),
(505,317,ls),
(505,112,o),
(433,8,o),
(300,8,cs)
);
}
);
width = 600;
}
);
unicode = 79;
},
{
glyphname = m;
lastChange = "2025-11-13 11:40:22 +0000";
layers = (
{
guides = (
{
pos = (-418,455);
},
{
pos = (-418,516);
}
);
layerId = "C7B35BE3-AA13-4B78-992E-F05F1268D666";
shapes = (
{
closed = 1;
nodes = (
(134,448,o),
(197,497,o),
(288,497,cs),
(387,497,o),
(442,443,o),
(442,320,cs),
(442,0,l),
(463,0,l),
(463,358,ls),
(463,447,o),
(529,497,o),
(617,497,cs),
(717,497,o),
(771,443,o),
(771,320,cs),
(771,0,l),
(792,0,l),
(792,323,ls),
(792,450,o),
(732,516,o),
(619,516,cs),
(526,516,o),
(472,469,o),
(453,404,c),
(449,404,l),
(429,477,o),
(373,516,o),
(290,516,cs),
(201,516,o),
(156,473,o),
(137,430,c),
(134,430,l),
(134,516,l),
(113,516,l),
(113,0,l),
(134,0,l),
(134,362,l),
(134,362,l)
);
}
);
width = 900;
},
{
layerId = "A5F3D33E-00A1-4213-AAE8-48E0A2B2F36F";
shapes = (
{
closed = 1;
nodes = (
(180,418.745,o),
(230.183,456,o),
(303,456,cs),
(379,456,o),
(414,409,o),
(414,317,cs),
(414,0,l),
(494,0,l),
(494,358,ls),
(494,418.362,o),
(541.813,456,o),
(615,456,cs),
(693.667,456,o),
(728,407.667,o),
(728,317,cs),
(728,0,l),
(808,0,l),
(808,331,ls),
(808,456.333,o),
(745.333,528,o),
(640,528,cs),
(552,528,o),
(501.667,479,o),
(483,423,c),
(481,423,l),
(453,497.667,o),
(391,528,o),
(323,528,cs),
(243,528,o),
(206.667,485.333,o),
(184,432,c),
(180,432,l),
(180,516,l),
(100,516,l),
(100,0,l),
(180,0,l),
(180,358,l),
(180,358,l)
);
}
);
width = 900;
},
{
guides = (
{
pos = (1149,419);
},
{
pos = (1101,440);
}
);
layerId = "055264FC-C366-4C37-95B8-CB5161C9C36E";
shapes = (
{
closed = 1;
nodes = (
(221,391,o),
(261,419,o),
(308,419,cs),
(356,419,o),
(380,387,o),
(380,319,cs),
(380,0,l),
(528,0,l),
(528,342,ls),
(528,391,o),
(567,419,o),
(615,419,cs),
(664,419,o),
(687,387,o),
(687,319,cs),
(687,0,l),
(835,0,l),
(835,331,ls),
(835,463,o),
(775,528,o),
(678,528,cs),
(601,528,o),
(536,489,o),
(518,440,c),
(515,440,l),
(491,498,o),
(437,528,o),
(368,528,cs),
(295,528,o),
(246,496,o),
(227,440,c),
(221,440,l),
(221,516,l),
(73,516,l),
(73,0,l),
(221,0,l),
(221,342,l),
(221,342,l)
);
}
);
width = 900;
}
);
unicode = 109;
},
{
glyphname = oe;
lastChange = "2025-11-13 12:14:51 +0000";
layers = (
{
anchors = (
{
name = bottom;
pos = (655,-12);
},
{
name = bottomright;
pos = (731,-12);
},
{
name = top;
pos = (651,529);
}
);
guides = (
{
angle = 90;
pos = (458,362);
},
{
angle = 90;
pos = (455,362);
},
{
pos = (455,366);
},
{
pos = (458,362);
},
{
angle = 90;
pos = (458,146);
},
{
angle = 90;
pos = (455,146);
},
{
pos = (483,150);
}
);
layerId = "C7B35BE3-AA13-4B78-992E-F05F1268D666";
shapes = (
{
closed = 1;
nodes = (
(359,-12,o),
(432,44,o),
(455,150,c),
(458,150,l),
(481,44,o),
(553,-12,o),
(655,-12,cs,{
name = hr00;
}),
(753,-12,o),
(819,40,o),
(848,124,c),
(830,131,l),
(800,48,o),
(739,7,o),
(655,7,cs),
(534,7,o),
(468,94,o),
(468,234,cs),
(468,260,l),
(856,260,l),
(856,267,ls),
(856,426,o),
(785,528,o),
(651,528,cs),
(551,528,o),
(481,473,o),
(458,366,c),
(455,366,l),
(432,473,o),
(359,528,o),
(258,528,cs),
(126,528,o),
(48,437,o),
(48,258,cs),
(48,79,o),
(126,-12,o),
(258,-12,cs,{
name = hr00;
})
);
},
{
closed = 1;
nodes = (
(138,7,o),
(71,94,o),
(71,234,cs),
(71,282,ls),
(71,422,o),
(138,509,o),
(258,509,cs),
(378,509,o),
(445,422,o),
(445,282,cs),
(445,234,ls),
(445,94,o),
(378,7,o),
(258,7,cs)
);
},
{
closed = 1;
nodes = (
(468,282,ls),
(468,422,o),
(533,509,o),
(651,509,cs),
(769,509,o),
(834,422,o),
(834,282,cs),
(834,278,l),
(468,278,l)
);
}
);
width = 900;
},
{
anchors = (
{
name = bottom;
pos = (649,-12);
},
{
name = bottomright;
pos = (728,-12);
},
{
name = top;
pos = (644,528);
}
);
layerId = "A5F3D33E-00A1-4213-AAE8-48E0A2B2F36F";
shapes = (
{
closed = 1;
nodes = (
(348,-12,o),
(424,28,o),
(451,103,c),
(457,103,l),
(484,28,o),
(563,-12,o),
(649,-12,cs,{
name = hr00;
}),
(748,-12,o),
(819,38,o),
(850,107,c),
(792,147,l),
(766,91,o),
(716,57,o),
(649,57,cs),
(555,57,o),
(495,123,o),
(495,214,cs),
(495,238,l),
(866,238,l),
(866,276,ls),
(866,422,o),
(779,528,o),
(644,528,cs),
(561,528,o),
(484,488,o),
(457,413,c),
(451,413,l),
(424,488,o),
(347,528,o),
(261,528,cs),
(117,528,o),
(29,422,o),
(29,258,cs),
(29,94,o),
(117,-12,o),
(261,-12,cs,{
name = hr00;
})
);
},
{
closed = 1;
nodes = (
(173,57,o),
(113,110,o),
(113,221,cs),
(113,295,ls),
(113,406,o),
(173,459,o),
(261,459,cs),
(349,459,o),
(409,406,o),
(409,295,cs),
(409,221,ls),
(409,110,o),
(349,57,o),
(261,57,cs)
);
},
{
closed = 1;
nodes = (
(495,305,ls),
(495,395,o),
(559,462,o),
(644,462,cs),
(726,462,o),
(783,400,o),
(783,309,cs),
(783,298,l),
(495,298,l)
);
}
);
width = 900;
},
{
anchors = (
{
name = bottom;
pos = (631,-12);
},
{
name = bottomright;
pos = (727,-12);
},
{
name = top;
pos = (619,528);
}
);
layerId = "055264FC-C366-4C37-95B8-CB5161C9C36E";
shapes = (
{
closed = 1;
nodes = (
(348,-12,o),
(419,14,o),
(447,62,c),
(453,62,l),
(481,14,o),
(553,-12,o),
(631,-12,cs,{
name = hr00;
}),
(735,-12,o),
(801,30,o),
(839,79,c),
(764,166,l),
(734,128,o),
(693,102,o),
(636,102,cs),
(562,102,o),
(521,147,o),
(521,213,cs),
(521,222,l),
(853,222,l),
(853,266,ls),
(853,427,o),
(764,528,o),
(619,528,cs),
(549,528,o),
(495,505,o),
(453,463,c),
(447,463,l),
(404,505,o),
(348,528,o),
(275,528,cs),
(124,528,o),
(32,425,o),
(32,258,cs),
(32,91,o),
(124,-12,o),
(275,-12,cs,{
name = hr00;
})
);
},
{
closed = 1;
nodes = (
(213,98,o),
(175,141,o),
(175,217,cs),
(175,299,ls),
(175,375,o),
(213,418,o),
(275,418,cs),
(337,418,o),
(375,375,o),
(375,299,cs),
(375,217,ls),
(375,141,o),
(337,98,o),
(275,98,cs)
);
},
{
closed = 1;
nodes = (
(521,313,ls),
(521,379,o),
(560,422,o),
(620,422,cs),
(680,422,o),
(717,380,o),
(717,313,cs),
(717,305,l),
(521,305,l)
);
}
);
width = 900;
}
);
unicode = 339;
},
{
glyphname = w;
kernLeft = w;
kernRight = w;
lastChange = "2025-11-13 15:13:57 +0000";
layers = (
{
layerId = "A5F3D33E-00A1-4213-AAE8-48E0A2B2F36F";
shapes = (
{
closed = 1;
nodes = (
(405,248,l),
(449,405,l),
(451,405,l),
(496,248,l),
(568,0,l),
(667,0,l),
(804,516,l),
(729,516,l),
(673,293,l),
(620,67,l),
(618,67,l),
(554,293,l),
(487,516,l),
(416,516,l),
(351,293,l),
(288,67,l),
(286,67,l),
(231,293,l),
(176,516,l),
(98,516,l),
(236,0,l),
(333,0,l)
);
}
);
userData = {
assembly = "NPUSHB[ ]	/* 20 values pushed */
19 7 10 16 4 0 10 114 16 10 114 13 2 114 7 2 114 1 2 114
SVTCA[0]	/* SetFreedomAndProjectionVectorToAxis */
CALL[ ]	/* CallFunction */
CALL[ ]	/* CallFunction */
CALL[ ]	/* CallFunction */
CALL[ ]	/* CallFunction */
CALL[ ]	/* CallFunction */
SHP[0]	/* ShiftPointByLastPoint */
SRP1[ ]	/* SetRefPoint1 */
SHP[1]	/* ShiftPointByLastPoint */
SRP1[ ]	/* SetRefPoint1 */
SHP[1]	/* ShiftPointByLastPoint */
IUP[0]	/* InterpolateUntPts */
IUP[1]	/* InterpolateUntPts */";
};
width = 900;
},
{
layerId = "C7B35BE3-AA13-4B78-992E-F05F1268D666";
shapes = (
{
closed = 1;
nodes = (
(397,308,l),
(448,483,l),
(451,483,l),
(502,308,l),
(597,0,l),
(623,0,l),
(780,516,l),
(759,516,l),
(661,191,l),
(612,27,l),
(609,27,l),
(558,191,l),
(461,517,l),
(439,517,l),
(342,191,l),
(291,27,l),
(288,27,l),
(239,191,l),
(141,516,l),
(119,516,l),
(276,0,l),
(302,0,l)
);
}
);
width = 900;
},
{
layerId = "055264FC-C366-4C37-95B8-CB5161C9C36E";
shapes = (
{
closed = 1;
nodes = (
(412,222,l),
(448,358,l),
(451,358,l),
(488,222,l),
(552,0,l),
(707,0,l),
(850,516,l),
(713,516,l),
(664,313,l),
(628,153,l),
(624,153,l),
(581,313,l),
(523,516,l),
(382,516,l),
(325,313,l),
(283,153,l),
(279,153,l),
(243,313,l),
(194,516,l),
(51,516,l),
(196,0,l),
(348,0,l)
);
}
);
width = 900;
}
);
note = w;
unicode = 119;
},
{
export = 0;
glyphname = e;
lastChange = "2025-11-13 12:15:05 +0000";
layers = (
{
anchors = (
{
name = bottom;
pos = (306,0);
},
{
name = bottomright;
pos = (384,0);
},
{
name = top;
pos = (302,516);
}
);
associatedMasterId = "C7B35BE3-AA13-4B78-992E-F05F1268D666";
layerId = "CBFCB52A-05D2-4C5C-BE87-F0778CA5D309";
name = "#instance";
shapes = (
{
closed = 1;
nodes = (
(406,-12,o),
(473,40,o),
(503,124,c),
(485,131,l),
(454,48,o),
(392,7,o),
(306,7,cs),
(183,7,o),
(115,94,o),
(115,234,cs),
(115,260,l),
(511,260,l),
(511,267,ls),
(511,426,o),
(439,528,o),
(302,528,cs),
(170,528,o),
(92,437,o),
(92,258,cs),
(92,79,o),
(171,-12,o),
(306,-12,cs,{
name = hr00;
})
);
},
{
closed = 1;
nodes = (
(422,509,o),
(489,422,o),
(489,282,cs),
(489,278,l),
(115,278,l),
(115,282,ls),
(115,422,o),
(182,509,o),
(302,509,cs)
);
}
);
width = 600;
},
{
anchors = (
{
name = bottom;
pos = (306,0);
},
{
name = bottomright;
pos = (409,0);
},
{
name = top;
pos = (301,516);
}
);
layerId = "055264FC-C366-4C37-95B8-CB5161C9C36E";
shapes = (
{
closed = 1;
nodes = (
(425,-12,o),
(495,30,o),
(535,79,c),
(455,166,l),
(423,128,o),
(380,102,o),
(319,102,cs),
(240,102,o),
(197,147,o),
(197,213,cs),
(197,222,l),
(550,222,l),
(550,266,ls),
(550,427,o),
(455,528,o),
(301,528,cs),
(146,528,o),
(50,425,o),
(50,256,cs),
(50,91,o),
(141,-12,o),
(314,-12,cs,{
name = hr00;
})
);
},
{
closed = 1;
nodes = (
(366,422,o),
(405,380,o),
(405,313,cs),
(405,305,l),
(197,305,l),
(197,313,ls),
(197,379,o),
(238,422,o),
(302,422,cs)
);
}
);
width = 600;
},
{
anchors = (
{
name = bottom;
pos = (309,0);
},
{
name = bottomright;
pos = (391,0);
},
{
name = top;
pos = (302,516);
}
);
layerId = "A5F3D33E-00A1-4213-AAE8-48E0A2B2F36F";
shapes = (
{
closed = 1;
nodes = (
(411,-12,o),
(485,38,o),
(516,107,c),
(457,147,l),
(430,91,o),
(378,57,o),
(309,57,cs),
(212,57,o),
(151,123,o),
(151,214,cs),
(151,238,l),
(533,238,l),
(533,276,ls),
(533,422,o),
(443,528,o),
(304,528,cs),
(164,528,o),
(67,422,o),
(67,257,cs),
(67,94,o),
(161,-12,o),
(309,-12,cs,{
name = hr00;
})
);
},
{
closed = 1;
nodes = (
(389,462,o),
(447,400,o),
(447,309,cs),
(447,298,l),
(151,298,l),
(151,305,ls),
(151,395,o),
(216,462,o),
(304,462,cs)
);
}
);
width = 600;
},
{
anchors = (
{
name = bottom;
pos = (306,0);
},
{
name = bottomright;
pos = (384,0);
},
{
name = top;
pos = (302,516);
}
);
layerId = "C7B35BE3-AA13-4B78-992E-F05F1268D666";
shapes = (
{
closed = 1;
nodes = (
(406,-12,o),
(473,40,o),
(503,124,c),
(485,131,l),
(454,48,o),
(392,7,o),
(306,7,cs),
(183,7,o),
(115,94,o),
(115,234,cs),
(115,260,l),
(511,260,l),
(511,267,ls),
(511,426,o),
(439,528,o),
(302,528,cs),
(170,528,o),
(92,437,o),
(92,258,cs),
(92,79,o),
(171,-12,o),
(306,-12,cs,{
name = hr00;
})
);
},
{
closed = 1;
nodes = (
(422,509,o),
(489,422,o),
(489,282,cs),
(489,278,l),
(115,278,l),
(115,282,ls),
(115,422,o),
(182,509,o),
(302,509,cs)
);
}
);
width = 600;
}
);
unicode = 101;
},
{
export = 0;
glyphname = o;
lastChange = "2025-11-13 12:15:05 +0000";
layers = (
{
anchors = (
{
name = bottom;
pos = (300,0);
},
{
name = top;
pos = (300,516);
}
);
associatedMasterId = "C7B35BE3-AA13-4B78-992E-F05F1268D666";
layerId = "CBFCB52A-05D2-4C5C-BE87-F0778CA5D309";
name = "#instance";
shapes = (
{
closed = 1;
nodes = (
(432,-12,o),
(510,79,o),
(510,258,cs),
(510,437,o),
(432,528,o),
(300,528,cs),
(168,528,o),
(90,437,o),
(90,258,cs),
(90,79,o),
(168,-12,o),
(300,-12,cs,{
name = hr00;
})
);
},
{
closed = 1;
nodes = (
(180,7,o),
(113,94,o),
(113,234,cs),
(113,282,ls),
(113,422,o),
(180,509,o),
(300,509,cs),
(420,509,o),
(487,422,o),
(487,282,cs),
(487,234,ls),
(487,94,o),
(420,7,o),
(300,7,cs)
);
}
);
width = 600;
},
{
anchors = (
{
name = bottom;
pos = (300,0);
},
{
name = top;
pos = (300,516);
}
);
layerId = "055264FC-C366-4C37-95B8-CB5161C9C36E";
shapes = (
{
closed = 1;
nodes = (
(461,-12,o),
(559,91,o),
(559,258,cs),
(559,425,o),
(461,528,o),
(300,528,cs),
(139,528,o),
(41,425,o),
(41,258,cs),
(41,91,o),
(139,-12,o),
(300,-12,cs,{
name = hr00;
})
);
},
{
closed = 1;
nodes = (
(234,98,o),
(194,141,o),
(194,217,cs),
(194,299,l),
(194,375,o),
(234,418,o),
(300,418,cs),
(366,418,o),
(406,375,o),
(406,299,cs),
(406,217,ls),
(406,141,o),
(366,98,o),
(300,98,cs)
);
}
);
width = 600;
},
{
anchors = (
{
name = bottom;
pos = (300,0);
},
{
name = top;
pos = (300,516);
}
);
layerId = "A5F3D33E-00A1-4213-AAE8-48E0A2B2F36F";
shapes = (
{
closed = 1;
nodes = (
(445,-12,o),
(534,94,o),
(534,258,cs),
(534,422,o),
(445,528,o),
(300,528,cs),
(155,528,o),
(66,422,o),
(66,258,cs),
(66,94,o),
(155,-12,o),
(300,-12,cs,{
name = hr00;
})
);
},
{
closed = 1;
nodes = (
(211,57,o),
(151,110,o),
(151,221,cs),
(151,295,ls),
(151,406,o),
(211,459,o),
(300,459,cs),
(389,459,o),
(449,406,o),
(449,295,cs),
(449,221,ls),
(449,110,o),
(389,57,o),
(300,57,cs)
);
}
);
width = 600;
},
{
anchors = (
{
name = bottom;
pos = (300,0);
},
{
name = top;
pos = (300,516);
}
);
layerId = "C7B35BE3-AA13-4B78-992E-F05F1268D666";
shapes = (
{
closed = 1;
nodes = (
(432,-12,o),
(510,79,o),
(510,258,cs),
(510,437,o),
(432,528,o),
(300,528,cs),
(168,528,o),
(90,437,o),
(90,258,cs),
(90,79,o),
(168,-12,o),
(300,-12,cs,{
name = hr00;
})
);
},
{
closed = 1;
nodes = (
(180,7,o),
(113,94,o),
(113,234,cs),
(113,282,ls),
(113,422,o),
(180,509,o),
(300,509,cs),
(420,509,o),
(487,422,o),
(487,282,cs),
(487,234,ls),
(487,94,o),
(420,7,o),
(300,7,cs)
);
}
);
width = 600;
}
);
unicode = 111;
},
{
color = 0;
glyphname = "De-cy";
lastChange = "2025-11-13 09:20:25 +0000";
layers = (
{
layerId = "055264FC-C366-4C37-95B8-CB5161C9C36E";
shapes = (
{
closed = 1;
nodes = (
(71,-150,l),
(209,-150,l),
(209,0,l),
(687,0,l),
(687,-150,l),
(825,-150,l),
(825,123,l),
(713,123,l,{
name = hr01;
}),
(713,698,l),
(226,698,l),
(226,507,ls),
(226,282,o),
(192,173,o),
(146,123,c),
(71,123,l,{
name = hr02;
})
);
},
{
closed = 1;
nodes = (
(568,123,l),
(295,123,l),
(333,183,o),
(357,288,o),
(357,485,cs,{
name = hr03;
}),
(357,579,l),
(568,579,l)
);
}
);
width = 900;
},
{
layerId = "A5F3D33E-00A1-4213-AAE8-48E0A2B2F36F";
shapes = (
{
closed = 1;
nodes = (
(93,-150,l,{
name = hr00;
}),
(170,-150,l),
(170,0,l),
(740,0,l),
(740,-150,l),
(817,-150,l),
(817,73,l),
(719,73,l),
(719,698,l),
(257,698,l),
(257,493,ls),
(257,286,o),
(226,159,o),
(166,73,c),
(93,73,l)
);
},
{
closed = 1;
nodes = (
(635,73,l),
(262,73,l),
(308,147,o),
(339,275,o),
(339,487,cs),
(339,625,l),
(635,625,l)
);
}
);
width = 900;
},
{
layerId = "C7B35BE3-AA13-4B78-992E-F05F1268D666";
shapes = (
{
closed = 1;
nodes = (
(162,-150,l,{
name = hr00;
}),
(184,-150,l),
(184,0,l),
(747,0,l),
(747,-150,l),
(769,-150,l),
(769,20,l),
(681,20,l),
(681,698,l),
(331,698,l),
(331,473,ls),
(331,224,o),
(287,78,o),
(225,20,c),
(162,20,l)
);
},
{
closed = 1;
nodes = (
(659,20,l),
(255,20,l),
(313,82,o),
(353,230,o),
(353,473,cs),
(353,678,l),
(659,678,l)
);
}
);
width = 900;
}
);
unicode = 1044;
},
{
glyphname = "Zhe-cy";
lastChange = "2025-11-13 20:09:04 +0000";
layers = (
{
anchors = (
{
name = top;
pos = (453,698);
}
);
guides = (
{
pos = (569,698);
},
{
pos = (397,297);
},
{
pos = (397,410);
},
{
angle = 90;
pos = (439,698);
}
);
layerId = "055264FC-C366-4C37-95B8-CB5161C9C36E";
shapes = (
{
closed = 1;
nodes = (
(145,0,o),
(177.667,20.333,o),
(207,87,cs),
(294,286,l),
(379,286,l),
(379,0,l),
(521,0,l),
(521,286,l),
(606,286,l),
(693,87,ls),
(722.333,20.333,o),
(755,0,o),
(807,0,cs),
(882,0,l),
(882,135,l),
(824,135,l),
(752,298,ls),
(736,334,o),
(714,351.667,o),
(682,357,c),
(682,363,l),
(712.667,372.333,o),
(731.333,389,o),
(750,429,cs),
(810,563,l),
(868,563,l),
(868,698,l),
(810,698,ls),
(755.333,698,o),
(719.667,672.667,o),
(693,614,cs),
(606,420,l),
(521,420,l),
(521,698,l),
(379,698,l),
(379,420,l),
(294,420,l),
(207,614,ls),
(180.333,672.667,o),
(144.667,698,o),
(90,698,cs),
(31,698,l),
(31,563,l),
(89,563,l),
(150,429,ls),
(168.667,389,o),
(187.333,372.333,o),
(218,363,c),
(218,357,l),
(186,351.667,o),
(164,334,o),
(148,298,cs),
(76,135,l),
(18,135,l),
(18,0,l),
(93,0,l),
(93,0,l)
);
}
);
width = 900;
},
{
anchors = (
{
name = top;
pos = (456,698);
}
);
guides = (
{
pos = (342,318);
},
{
pos = (342,390);
}
);
layerId = "A5F3D33E-00A1-4213-AAE8-48E0A2B2F36F";
shapes = (
{
closed = 1;
nodes = (
(108.667,0,o),
(134,18.333,o),
(162,73,cs),
(288,318,l),
(411,318,l),
(411,0,l),
(495,0,l),
(495,318,l),
(618,318,l),
(742,73,ls),
(770,18.333,o),
(798.667,0,o),
(836,0,cs),
(900,0,l),
(900,74,l),
(837,74,l),
(731,284,ls),
(708.333,329.333,o),
(686.667,344,o),
(656,352,c),
(656,357,l),
(682.667,365,o),
(702.333,382,o),
(721,422,cs),
(817,624,l),
(880,624,l),
(880,698,l),
(828,698,ls),
(786.667,698,o),
(755.333,679.333,o),
(730,626,cs),
(618,390,l),
(495,390,l),
(495,698,l),
(411,698,l),
(411,390,l),
(288,390,l),
(178,626,ls),
(152.667,679.333,o),
(120.667,698,o),
(78,698,cs),
(26,698,l),
(26,624,l),
(89,624,l),
(183,422,ls),
(201.667,382,o),
(224.667,365,o),
(250,357,c),
(250,352,l),
(220.667,344,o),
(199.667,329.333,o),
(177,284,cs),
(69,74,l),
(6,74,l),
(6,0,l),
(70,0,l),
(70,0,l)
);
}
);
width = 904;
},
{
anchors = (
{
name = top;
pos = (451,698);
}
);
layerId = "C7B35BE3-AA13-4B78-992E-F05F1268D666";
shapes = (
{
closed = 1;
nodes = (
(106,0,o),
(120,4,o),
(125,17,c),
(304,344,l),
(440,344,l),
(440,0,l),
(462,0,l),
(462,344,l),
(598,344,l),
(777,17,ls),
(783.667,5,o),
(793,0,o),
(809,0,cs),
(859,0,l),
(859,20,l),
(800,20,l),
(632,327,ls),
(622.667,344.333,o),
(614.333,350.667,o),
(601,352,c),
(601,354,l),
(613,356.667,o),
(621.667,362.667,o),
(631,380,cs),
(788,678,l),
(847,678,l),
(847,698,l),
(798,698,ls),
(782,698,o),
(772.333,693,o),
(763,677,cs),
(598,364,l),
(462,364,l),
(462,698,l),
(440,698,l),
(440,364,l),
(304,364,l),
(139,677,ls),
(129.667,693,o),
(120,698,o),
(104,698,cs),
(55,698,l),
(55,678,l),
(114,678,l),
(271,380,l),
(281.667,362.667,o),
(289,356.667,o),
(301,354,c),
(301,352,l),
(287.667,350.667,o),
(279.333,344.333,o),
(270,327,cs),
(102,20,l),
(43,20,l),
(43,0,l),
(93,0,l),
(93,0,l)
);
}
);
width = 900;
}
);
unicode = 1046;
},
{
color = 0;
glyphname = "Ef-cy";
lastChange = "2025-11-13 09:20:25 +0000";
layers = (
{
layerId = "A5F3D33E-00A1-4213-AAE8-48E0A2B2F36F";
shapes = (
{
closed = 1;
nodes = (
(493,61,l),
(523,61,ls),
(715,61,o),
(823,185,o),
(823,348,cs),
(823,508,o),
(718,635,o),
(523,635,cs),
(493,635,l),
(493,725,l),
(409,725,l),
(409,635,l),
(379,635,ls),
(191.437,635,o),
(79,514.64,o),
(79,348,cs),
(79,185.854,o),
(186.943,61,o),
(378,61,cs),
(409,61,l),
(409,-29,l),
(493,-29,l),
(493,-29,l)
);
},
{
closed = 1;
nodes = (
(251.874,131,o),
(169,210.628,o),
(169,317,cs),
(169,379,ls),
(169,483.439,o),
(250.963,565,o),
(379,565,cs),
(411,565,l),
(411,131,l),
(378,131,l),
(378,131,l)
);
},
{
closed = 1;
nodes = (
(523,565,ls),
(651.037,565,o),
(733,483.439,o),
(733,379,cs),
(733,317,ls),
(733,212.561,o),
(651.037,131,o),
(523,131,cs),
(491,131,l),
(491,565,l),
(491,565,l)
);
}
);
width = 900;
},
{
layerId = "C7B35BE3-AA13-4B78-992E-F05F1268D666";
shapes = (
{
closed = 1;
nodes = (
(461,61,l),
(517,61,ls),
(690.695,61,o),
(797,181.58,o),
(797,348,cs),
(797,514.42,o),
(690.695,635,o),
(517,635,cs),
(461,635,l),
(461,725,l),
(439,725,l),
(439,635,l),
(383,635,ls),
(208,635,o),
(103,510,o),
(103,348,cs),
(103,189,o),
(203,61,o),
(383,61,cs),
(439,61,l),
(439,-29,l),
(461,-29,l),
(461,-29,l)
);
},
{
closed = 1;
nodes = (
(212.894,81,o),
(127,213.836,o),
(127,318,cs),
(127,378,ls),
(127,482.164,o),
(212.894,615,o),
(383,615,cs),
(439,615,l),
(439,81,l),
(383,81,l),
(383,81,l)
);
},
{
closed = 1;
nodes = (
(517,615,ls),
(691.162,615,o),
(773,478.109,o),
(773,378,cs),
(773,318,ls),
(773,217.891,o),
(691.162,81,o),
(517,81,cs),
(461,81,l),
(461,615,l),
(461,615,l)
);
}
);
width = 900;
},
{
layerId = "055264FC-C366-4C37-95B8-CB5161C9C36E";
shapes = (
{
closed = 1;
nodes = (
(528,46,l),
(569,46,ls),
(746.85,46,o),
(868,177.432,o),
(868,347,cs),
(868,513,o),
(756,650,o),
(569,650,cs),
(528,650,l),
(528,740,l),
(374,740,l),
(374,650,l),
(333,650,ls),
(153,650,o),
(34,518,o),
(34,347,cs),
(34,175.427,o),
(157.573,46,o),
(333,46,cs),
(374,46,l),
(374,-44,l),
(528,-44,l),
(528,-44,l)
);
},
{
closed = 1;
nodes = (
(236.355,171,o),
(190,234.002,o),
(190,317,cs),
(190,379,ls),
(190,458.355,o),
(229.876,525,o),
(333,525,cs),
(377,525,l),
(377,171,l),
(333,171,l),
(333,171,l)
);
},
{
closed = 1;
nodes = (
(569,525,ls),
(675.645,525,o),
(712,454.663,o),
(712,379,cs),
(712,317,ls),
(712,234.002,o),
(665.645,171,o),
(569,171,cs),
(525,171,l),
(525,525,l),
(525,525,l)
);
}
);
width = 900;
}
);
note = uni0424;
unicode = 1060;
},
{
glyphname = "Sha-cy";
lastChange = "2025-11-13 15:19:44 +0000";
layers = (
{
layerId = "A5F3D33E-00A1-4213-AAE8-48E0A2B2F36F";
shapes = (
{
closed = 1;
nodes = (
(813,698,l),
(729,698,l),
(729,74,l),
(493,74,l),
(493,698,l),
(409,698,l),
(409,74,l),
(173,74,l),
(173,698,l),
(89,698,l),
(89,0,l),
(813,0,l)
);
}
);
userData = {
assembly = "NPUSHB[ ]	/* 15 values pushed */
7 3 3 0 10 114 9 4 114 5 4 114 1 4 114
SVTCA[0]	/* SetFreedomAndProjectionVectorToAxis */
CALL[ ]	/* CallFunction */
CALL[ ]	/* CallFunction */
CALL[ ]	/* CallFunction */
CALL[ ]	/* CallFunction */
SHP[0]	/* ShiftPointByLastPoint */
SRP1[ ]	/* SetRefPoint1 */
SHP[1]	/* ShiftPointByLastPoint */
IUP[0]	/* InterpolateUntPts */
IUP[1]	/* InterpolateUntPts */";
};
width = 900;
},
{
layerId = "C7B35BE3-AA13-4B78-992E-F05F1268D666";
shapes = (
{
closed = 1;
nodes = (
(794,698,l),
(772,698,l),
(772,22,l),
(461,22,l),
(461,698,l),
(439,698,l),
(439,22,l),
(128,22,l),
(128,698,l),
(106,698,l),
(106,0,l),
(794,0,l)
);
}
);
width = 900;
},
{
layerId = "055264FC-C366-4C37-95B8-CB5161C9C36E";
shapes = (
{
closed = 1;
nodes = (
(849,698,l),
(697,698,l),
(697,135,l),
(526,135,l),
(526,698,l),
(374,698,l),
(374,135,l),
(201,135,l),
(201,698,l),
(49,698,l),
(49,0,l),
(849,0,l)
);
}
);
width = 900;
}
);
note = uni0428;
unicode = 1064;
},
{
glyphname = "Shcha-cy";
kernRight = uni0414;
lastChange = "2025-11-13 15:19:44 +0000";
layers = (
{
layerId = "A5F3D33E-00A1-4213-AAE8-48E0A2B2F36F";
shapes = (
{
closed = 1;
nodes = (
(858,74,l),
(760,74,l),
(760,698,l),
(676,698,l),
(676,74,l),
(447,74,l),
(447,698,l),
(363,698,l),
(363,74,l),
(149,74,l),
(149,698,l),
(65,698,l),
(65,0,l),
(781,0,l),
(781,-150,l),
(858,-150,l)
);
}
);
userData = {
assembly = "NPUSHB[ ]	/* 17 values pushed */
13 9 5 5 0 2 10 114 11 4 114 7 4 114 3 4 114
SVTCA[0]	/* SetFreedomAndProjectionVectorToAxis */
CALL[ ]	/* CallFunction */
CALL[ ]	/* CallFunction */
CALL[ ]	/* CallFunction */
CALL[ ]	/* CallFunction */
SHP[0]	/* ShiftPointByLastPoint */
SHP[0]	/* ShiftPointByLastPoint */
SRP1[ ]	/* SetRefPoint1 */
SHP[1]	/* ShiftPointByLastPoint */
SHP[1]	/* ShiftPointByLastPoint */
IUP[0]	/* InterpolateUntPts */
IUP[1]	/* InterpolateUntPts */";
};
width = 900;
},
{
layerId = "C7B35BE3-AA13-4B78-992E-F05F1268D666";
shapes = (
{
closed = 1;
nodes = (
(842,20,l),
(754,20,l),
(754,698,l),
(732,698,l),
(732,20,l),
(421,20,l),
(421,698,l),
(399,698,l),
(399,20,l),
(88,20,l),
(88,698,l),
(66,698,l),
(66,0,l),
(820,0,l),
(820,-150,l),
(842,-150,l)
);
}
);
width = 900;
},
{
layerId = "055264FC-C366-4C37-95B8-CB5161C9C36E";
shapes = (
{
closed = 1;
nodes = (
(885,135,l),
(779,135,l),
(779,698,l),
(627,698,l),
(627,135,l),
(479,135,l),
(479,698,l),
(327,698,l),
(327,135,l),
(179,135,l),
(179,698,l),
(27,698,l),
(27,0,l),
(742,0,l),
(742,-150,l),
(885,-150,l)
);
}
);
width = 900;
}
);
note = uni0429;
unicode = 1065;
},
{
glyphname = "Yeru-cy";
lastChange = "2025-11-16 17:43:51 +0000";
layers = (
{
anchors = (
{
name = top;
pos = (450,698);
}
);
guides = (
{
angle = 90;
pos = (450,-131);
}
);
layerId = "A5F3D33E-00A1-4213-AAE8-48E0A2B2F36F";
shapes = (
{
closed = 1;
nodes = (
(522.935,0,o),
(592,75.67,o),
(592,209,cs),
(592,342.33,o),
(522.935,418,o),
(397,418,cs),
(189,418,l),
(189,698,l),
(105,698,l),
(105,0,l),
(397,0,l),
(397,0,l)
);
},
{
closed = 1;
nodes = (
(397,342,ls),
(463,342,o),
(502,306,o),
(502,233,cs),
(502,181,ls),
(502,108,o),
(463,72,o),
(397,72,cs),
(189,72,l),
(189,342,l),
(189,342,l)
);
},
{
closed = 1;
nodes = (
(794,698,l),
(710,698,l),
(710,0,l),
(794,0,l)
);
}
);
width = 900;
},
{
anchors = (
{
name = top;
pos = (450,698);
}
);
layerId = "C7B35BE3-AA13-4B78-992E-F05F1268D666";
shapes = (
{
closed = 1;
nodes = (
(518.473,0,o),
(578,77.302,o),
(578,199,cs),
(578,323.326,o),
(516.472,398,o),
(404,398,cs),
(168,398,l),
(168,698,l),
(146,698,l),
(146,0,l),
(404,0,l),
(404,0,l)
);
},
{
closed = 1;
nodes = (
(404,378,ls),
(503,378,o),
(554,308.656,o),
(554,220,cs),
(554,178,ls),
(554,89.344,o),
(503,20,o),
(404,20,cs),
(168,20,l),
(168,378,l),
(168,378,l)
);
},
{
closed = 1;
nodes = (
(752,698,l),
(730,698,l),
(730,0,l),
(752,0,l)
);
}
);
width = 900;
},
{
anchors = (
{
name = top;
pos = (450,698);
}
);
guides = (
{
angle = 90;
pos = (450,-131);
}
);
layerId = "055264FC-C366-4C37-95B8-CB5161C9C36E";
shapes = (
{
closed = 1;
nodes = (
(519.152,0,o),
(602,90.463,o),
(602,223,cs),
(602,355.537,o),
(519.152,446,o),
(390,446,cs),
(212,446,l),
(212,698,l),
(60,698,l),
(60,0,l),
(390,0,l),
(390,0,l)
);
},
{
closed = 1;
nodes = (
(372,314,ls),
(417.534,314,o),
(445,289.802,o),
(445,245,cs),
(445,201,ls),
(445,156.353,o),
(416.873,132,o),
(372,132,cs),
(212,132,l),
(212,314,l),
(212,314,l)
);
},
{
closed = 1;
nodes = (
(839,698,l),
(687,698,l),
(687,0,l),
(839,0,l)
);
}
);
width = 900;
}
);
note = uni042B;
unicode = 1067;
},
{
color = 0;
glyphname = "Lje-cy";
kernLeft = uni041B;
kernRight = uni042A;
lastChange = "2025-11-13 09:20:25 +0000";
layers = (
{
layerId = "A5F3D33E-00A1-4213-AAE8-48E0A2B2F36F";
shapes = (
{
closed = 1;
nodes = (
(52,0,o),
(85,13,o),
(113,41,cs),
(143.667,71.667,o),
(168,114.5,o),
(184,184.5,cs),
(200,254.5,o),
(209,355,o),
(209,499,cs),
(209,624,l),
(445,624,l),
(445,0,l),
(737,0,ls),
(862.935,0,o),
(932,75.67,o),
(932,209,cs),
(932,342.33,o),
(862.935,418,o),
(737,418,cs),
(529,418,l),
(529,698,l),
(129,698,l),
(129,505,ls),
(129,275,o),
(111,173,o),
(68,108,cs),
(60,95,o),
(50,84,o),
(40,74,c),
(-32,74,l),
(-32,0,l),
(4,0,l),
(4,0,l)
);
},
{
closed = 1;
nodes = (
(737,344,ls),
(803.485,344,o),
(842,308.195,o),
(842,235,cs),
(842,183,ls),
(842,110.251,o),
(803.15,74,o),
(737,74,cs),
(529,74,l),
(529,344,l),
(529,344,l)
);
}
);
width = 900;
},
{
layerId = "C7B35BE3-AA13-4B78-992E-F05F1268D666";
shapes = (
{
closed = 1;
nodes = (
(57,0,o),
(70,4,o),
(86,20,cs),
(116.667,50.667,o),
(142.333,105.667,o),
(161,187,cs),
(179.667,268.333,o),
(191,377,o),
(191,513,cs),
(191,678,l),
(473,678,l),
(473,0,l),
(731,0,ls),
(845.473,0,o),
(905,77.302,o),
(905,199,cs),
(905,323.326,o),
(843.472,398,o),
(731,398,cs),
(495,398,l),
(495,698,l),
(169,698,l),
(169,513,ls),
(169,374.333,o),
(158,266.167,o),
(138,185.5,cs),
(118,104.833,o),
(91,50.667,o),
(59,20,c),
(-4,20,l),
(-4,0,l),
(37,0,l),
(37,0,l)
);
},
{
closed = 1;
nodes = (
(731,378,ls),
(830,378,o),
(881,308.656,o),
(881,220,cs),
(881,178,ls),
(881,89.344,o),
(830,20,o),
(731,20,cs),
(495,20,l),
(495,378,l),
(495,378,l)
);
}
);
width = 900;
},
{
layerId = "055264FC-C366-4C37-95B8-CB5161C9C36E";
shapes = (
{
closed = 1;
nodes = (
(76.667,-6,o),
(119.667,9.667,o),
(161,51,cs),
(187.667,77.667,o),
(208.833,117.167,o),
(225.5,180.5,cs),
(242.167,243.833,o),
(251,332.333,o),
(251,455,cs),
(251,563,l),
(416,563,l),
(416,0,l),
(736,0,ls),
(865.152,0,o),
(948,90.463,o),
(948,223,cs),
(948,355.537,o),
(865.152,446,o),
(736,446,cs),
(568,446,l),
(568,698,l),
(103,698,l),
(103,476,ls),
(103,370.667,o),
(96.833,296.167,o),
(85.5,243.5,cs),
(74.167,190.833,o),
(58.333,157.667,o),
(37,135,c),
(-46,135,l),
(-46,-6,l),
(6,-6,l),
(6,-6,l)
);
},
{
closed = 1;
nodes = (
(718,314,ls),
(763.534,314,o),
(791,289.802,o),
(791,245,cs),
(791,201,ls),
(791,156.353,o),
(762.873,132,o),
(718,132,cs),
(568,132,l),
(568,314,l),
(568,314,l)
);
}
);
width = 900;
}
);
note = uni0409;
unicode = 1033;
},
{
color = 0;
glyphname = "Nje-cy";
kernRight = uni042A;
lastChange = "2025-11-13 09:20:25 +0000";
layers = (
{
layerId = "A5F3D33E-00A1-4213-AAE8-48E0A2B2F36F";
shapes = (
{
closed = 1;
nodes = (
(85,316,l),
(418,316,l),
(418,0,l),
(710,0,ls),
(835.935,0,o),
(905,75.67,o),
(905,209,cs),
(905,342.33,o),
(835.935,418,o),
(710,418,cs),
(502,418,l),
(502,698,l),
(418,698,l),
(418,390,l),
(85,390,l),
(85,698,l),
(1,698,l),
(1,0,l),
(85,0,l),
(85,0,l)
);
},
{
closed = 1;
nodes = (
(710,344,ls),
(776.485,344,o),
(815,308.195,o),
(815,235,cs),
(815,183,ls),
(815,110.251,o),
(776.15,74,o),
(710,74,cs),
(502,74,l),
(502,344,l),
(502,344,l)
);
}
);
width = 900;
},
{
layerId = "C7B35BE3-AA13-4B78-992E-F05F1268D666";
shapes = (
{
closed = 1;
nodes = (
(39,358,l),
(446,358,l),
(446,0,l),
(708,0,ls),
(820.132,0,o),
(882,71.67,o),
(882,189,cs),
(882,306.253,o),
(820.51,378,o),
(708,378,cs),
(468,378,l),
(468,698,l),
(446,698,l),
(446,378,l),
(39,378,l),
(39,698,l),
(17,698,l),
(17,0,l),
(39,0,l),
(39,0,l)
);
},
{
closed = 1;
nodes = (
(708,358,ls),
(816.037,358,o),
(858,281.955,o),
(858,210,cs),
(858,168,ls),
(858,79,o),
(799,20,o),
(708,20,cs),
(468,20,l),
(468,358,l),
(468,358,l)
);
}
);
width = 900;
},
{
layerId = "055264FC-C366-4C37-95B8-CB5161C9C36E";
shapes = (
{
closed = 1;
nodes = (
(138,286,l),
(384,286,l),
(384,0,l),
(704,0,ls),
(833.152,0,o),
(916,90.463,o),
(916,223,cs),
(916,355.537,o),
(833.152,446,o),
(704,446,cs),
(536,446,l),
(536,698,l),
(384,698,l),
(384,420,l),
(138,420,l),
(138,698,l),
(-14,698,l),
(-14,0,l),
(138,0,l),
(138,0,l)
);
},
{
closed = 1;
nodes = (
(686,314,ls),
(731.534,314,o),
(759,289.802,o),
(759,245,cs),
(759,201,ls),
(759,156.353,o),
(730.873,132,o),
(686,132,cs),
(536,132,l),
(536,314,l),
(536,314,l)
);
}
);
width = 900;
}
);
note = uni040A;
unicode = 1034;
},
{
color = 0;
glyphname = "Yu-cy";
kernRight = uni041E;
lastChange = "2025-11-13 09:20:25 +0000";
layers = (
{
layerId = "A5F3D33E-00A1-4213-AAE8-48E0A2B2F36F";
shapes = (
{
closed = 1;
nodes = (
(777,-12,o),
(855,146,o),
(855,349,cs),
(855,589.56,o),
(749.135,710,o),
(569,710,cs),
(399.421,710,o),
(293.071,599.843,o),
(285,390,c),
(130,390,l),
(130,698,l),
(46,698,l),
(46,0,l),
(130,0,l),
(130,316,l),
(283,316,l),
(293.027,101.415,o),
(394.332,-12,o),
(569,-12,cs)
);
},
{
closed = 1;
nodes = (
(447.667,63,o),
(373,147,o),
(373,291,cs),
(373,407,ls),
(373,551,o),
(447.667,635,o),
(569,635,cs),
(690.333,635,o),
(765,551,o),
(765,407,cs),
(765,291,ls),
(765,147,o),
(690.333,63,o),
(569,63,cs)
);
}
);
width = 900;
},
{
layerId = "C7B35BE3-AA13-4B78-992E-F05F1268D666";
shapes = (
{
closed = 1;
nodes = (
(718.17,-12,o),
(814,110.353,o),
(814,349,cs),
(814,589.472,o),
(718.318,710,o),
(548,710,cs),
(353,710,o),
(285,552,o),
(282,364,c),
(109,364,l),
(109,698,l),
(87,698,l),
(87,0,l),
(109,0,l),
(109,344,l),
(282,344,l),
(282,108.809,o),
(378.262,-12,o),
(548,-12,cs)
);
},
{
closed = 1;
nodes = (
(398.667,8,o),
(306,117.333,o),
(306,328,cs),
(306,370,ls),
(306,581,o),
(399,690,o),
(548,690,cs),
(698.667,690,o),
(790,580.667,o),
(790,370,cs),
(790,328,ls),
(790,117.333,o),
(698.667,8,o),
(548,8,cs)
);
}
);
width = 900;
},
{
layerId = "055264FC-C366-4C37-95B8-CB5161C9C36E";
shapes = (
{
closed = 1;
nodes = (
(799,-12,o),
(895,142,o),
(895,349,cs),
(895,563,o),
(793,710,o),
(588,710,cs),
(422.935,710,o),
(304.748,607.603,o),
(285,420,c),
(158,420,l),
(158,698,l),
(6,698,l),
(6,0,l),
(158,0,l),
(158,286,l),
(283,286,l),
(304.853,93.295,o),
(417.116,-12,o),
(588,-12,cs)
);
},
{
closed = 1;
nodes = (
(497.333,123,o),
(442,186.333,o),
(442,297,cs),
(442,401,ls),
(442,511.667,o),
(497.333,575,o),
(588,575,cs),
(678.667,575,o),
(734,511.667,o),
(734,401,cs),
(734,297,ls),
(734,186.333,o),
(678.667,123,o),
(588,123,cs)
);
}
);
width = 900;
}
);
note = uni042E;
unicode = 1070;
},
{
glyphname = "EnGe-cy";
lastChange = "2025-11-13 20:14:49 +0000";
layers = (
{
anchors = (
{
name = top;
pos = (453,698);
}
);
guides = (
{
pos = (569,698);
},
{
pos = (397,297);
},
{
pos = (397,410);
},
{
angle = 90;
pos = (439,698);
}
);
layerId = "055264FC-C366-4C37-95B8-CB5161C9C36E";
shapes = (
{
closed = 1;
nodes = (
(206,286,l),
(452,286,l),
(452,0,l),
(604,0,l),
(604,563,l),
(862,563,l),
(862,698,l),
(452,698,l),
(452,420,l),
(206,420,l),
(206,698,l),
(54,698,l),
(54,0,l),
(206,0,l)
);
}
);
width = 900;
},
{
anchors = (
{
name = top;
pos = (456,698);
}
);
guides = (
{
pos = (342,318);
},
{
pos = (342,390);
}
);
layerId = "A5F3D33E-00A1-4213-AAE8-48E0A2B2F36F";
shapes = (
{
closed = 1;
nodes = (
(149,316,l),
(482,316,l),
(482,0,l),
(566,0,l),
(566,624,l),
(862,624,l),
(862,698,l),
(482,698,l),
(482,390,l),
(149,390,l),
(149,698,l),
(65,698,l),
(65,0,l),
(149,0,l)
);
}
);
width = 900;
},
{
anchors = (
{
name = top;
pos = (451,698);
}
);
layerId = "C7B35BE3-AA13-4B78-992E-F05F1268D666";
shapes = (
{
closed = 1;
nodes = (
(92,344,l),
(499,344,l),
(499,0,l),
(521,0,l),
(521,678,l),
(853,678,l),
(853,698,l),
(499,698,l),
(499,364,l),
(92,364,l),
(92,698,l),
(70,698,l),
(70,0,l),
(92,0,l)
);
}
);
width = 900;
}
);
unicode = 1188;
},
{
color = 0;
glyphname = "zhe-cy";
kernLeft = uni0436;
kernRight = uni0436;
lastChange = "2025-11-13 09:20:25 +0000";
layers = (
{
layerId = "A5F3D33E-00A1-4213-AAE8-48E0A2B2F36F";
shapes = (
{
closed = 1;
nodes = (
(162,0,l),
(198,0,o),
(227.333,16.667,o),
(250,70,cs),
(318,232,l),
(410,232,l),
(410,0,l),
(490,0,l),
(490,232,l),
(582,232,l),
(650,70,ls),
(672.667,16.667,o),
(702,0,o),
(738,0,cs),
(811,0,l),
(811,70,l),
(735,70,l),
(677,209,ls),
(663.667,243.667,o),
(640.667,260,o),
(614,264,c),
(614,268,l),
(640.667,276,o),
(660.333,293.667,o),
(675,327,cs),
(728,446,l),
(804,446,l),
(804,516,l),
(741,516,ls),
(701,516,o),
(671,497,o),
(651,453,cs),
(582,300,l),
(490,300,l),
(490,516,l),
(410,516,l),
(410,300,l),
(318,300,l),
(249,453,ls),
(229,497,o),
(199,516,o),
(159,516,cs),
(96,516,l),
(96,446,l),
(172,446,l),
(225,327,ls),
(239.667,293.667,o),
(260.667,276,o),
(286,268,c),
(286,264,l),
(260.667,260,o),
(237.667,243.667,o),
(223,209,cs),
(165,70,l),
(89,70,l),
(89,0,l)
);
}
);
width = 900;
},
{
layerId = "C7B35BE3-AA13-4B78-992E-F05F1268D666";
shapes = (
{
closed = 1;
nodes = (
(177,0,l),
(189,0,o),
(196.667,4,o),
(202,16,cs),
(327,256,l),
(439,256,l),
(439,0,l),
(460,0,l),
(460,256,l),
(572,256,l),
(697,16,ls),
(703.667,4,o),
(710,0,o),
(722,0,cs),
(776,0,l),
(776,19,l),
(719,19,l),
(612,224,ls),
(602,242,o),
(596,261,o),
(576,264,c),
(576,267,l),
(589,270,o),
(596.667,277.667,o),
(610,303,cs),
(712,487,l),
(769,487,l),
(769,506,l),
(720,506,ls),
(705.333,506,o),
(697.333,500,o),
(688,484,cs),
(572,275,l),
(460,275,l),
(460,506,l),
(439,506,l),
(439,275,l),
(327,275,l),
(211,484,ls),
(201.667,500,o),
(193.667,506,o),
(179,506,cs),
(130,506,l),
(130,487,l),
(187,487,l),
(289,303,ls),
(303.667,277.667,o),
(309.667,269.667,o),
(323,267,c),
(323,264,l),
(305,260,o),
(296,241,o),
(287,224,cs),
(180,19,l),
(123,19,l),
(123,0,l)
);
}
);
width = 900;
},
{
layerId = "055264FC-C366-4C37-95B8-CB5161C9C36E";
shapes = (
{
closed = 1;
nodes = (
(124,0,l),
(180,0,o),
(213,20.333,o),
(241,75,cs),
(310,209,l),
(376,209,l),
(376,0,l),
(524,0,l),
(524,209,l),
(590,209,l),
(659,75,ls),
(687,20.333,o),
(720,0,o),
(776,0,cs),
(843,0,l),
(843,115,l),
(789,115,l),
(734,223,ls),
(720.667,249.667,o),
(700,262.667,o),
(676,268,c),
(676,273,l),
(700,279.667,o),
(720,296,o),
(732,320,cs),
(777,410,l),
(831,410,l),
(831,525,l),
(770,525,ls),
(714,525,o),
(680.667,504.333,o),
(654,451,cs),
(590,324,l),
(524,324,l),
(524,525,l),
(376,525,l),
(376,324,l),
(310,324,l),
(246,451,ls),
(219.333,504.333,o),
(186,525,o),
(130,525,cs),
(69,525,l),
(69,410,l),
(123,410,l),
(168,320,ls),
(180,296,o),
(200,279.667,o),
(224,273,c),
(224,268,l),
(200,262.667,o),
(180.667,249.667,o),
(166,223,cs),
(111,115,l),
(57,115,l),
(57,0,l)
);
}
);
width = 900;
}
);
note = uni0436;
unicode = 1078;
},
{
color = 0;
glyphname = "ef-cy";
lastChange = "2025-11-13 09:20:25 +0000";
layers = (
{
layerId = "A5F3D33E-00A1-4213-AAE8-48E0A2B2F36F";
shapes = (
{
closed = 1;
nodes = (
(490,-200,l),
(490,54,l),
(493,54,l),
(530,14,o),
(562,-12,o),
(613,-12,cs),
(727,-12,o),
(784,77,o),
(784,258,cs),
(784,439,o),
(728,528,o),
(613,528,cs),
(562,528,o),
(530,502,o),
(493,462,c),
(490,462,l),
(490,710,l),
(410,710,l),
(410,462,l),
(407,462,l),
(381.667,502,o),
(338,528,o),
(287,528,cs),
(214,528,o),
(164,492,o),
(138,418,cs),
(123,377,o),
(116,323,o),
(116,258,cs),
(116,77,o),
(173,-12,o),
(287,-12,cs),
(338,-12,o),
(382,14,o),
(407,54,c),
(410,54,l),
(410,-200,l)
);
},
{
closed = 1;
nodes = (
(235,59,o),
(202,102,o),
(202,214,cs),
(202,302,ls),
(202,414,o),
(235,457,o),
(308,457,cs),
(371,457,o),
(411,434.988,o),
(411,387,cs),
(411,129,ls),
(411,81.677,o),
(371,59,o),
(308,59,cs)
);
},
{
closed = 1;
nodes = (
(529,59,o),
(489,82.148,o),
(489,129,cs),
(489,387,ls),
(489,434.904,o),
(529,457,o),
(592,457,cs),
(667,457,o),
(698,414,o),
(698,302,cs),
(698,214,ls),
(698,102,o),
(667,59,o),
(592,59,cs)
);
}
);
width = 900;
},
{
layerId = "C7B35BE3-AA13-4B78-992E-F05F1268D666";
shapes = (
{
closed = 1;
nodes = (
(460,-200,l),
(460,68,l),
(463,68,l),
(483,26.667,o),
(524.667,-12,o),
(586,-12,cs),
(699.851,-12,o),
(749,76.897,o),
(749,253,cs),
(749,429.103,o),
(699.851,518,o),
(586,518,cs),
(524.667,518,o),
(483,480.667,o),
(463,438,c),
(460,438,l),
(460,710,l),
(439,710,l),
(439,438,l),
(436,438,l),
(416,480.667,o),
(375.667,518,o),
(313,518,cs),
(238.333,518,o),
(189.667,478.667,o),
(167,400,cs),
(155.667,360.667,o),
(150,311.667,o),
(150,253,cs),
(150,118,o),
(178,-12,o),
(313,-12,cs),
(375.667,-12,o),
(416,26.667,o),
(436,68,c),
(439,68,l),
(439,-200,l)
);
},
{
closed = 1;
nodes = (
(213,7,o),
(173,91.667,o),
(173,229,cs),
(173,277,ls),
(173,414.333,o),
(213,499,o),
(313,499,cs),
(390.264,499,o),
(439,430.445,o),
(439,387,cs),
(439,119,ls),
(439,79.262,o),
(393.019,7,o),
(313,7,cs)
);
},
{
closed = 1;
nodes = (
(505.981,7,o),
(460,79.262,o),
(460,119,cs),
(460,387,ls),
(460,426.738,o),
(505.981,499,o),
(586,499,cs),
(686,499,o),
(726,414.333,o),
(726,277,cs),
(726,229,ls),
(726,91.667,o),
(686,7,o),
(586,7,cs)
);
}
);
width = 900;
},
{
layerId = "055264FC-C366-4C37-95B8-CB5161C9C36E";
shapes = (
{
closed = 1;
nodes = (
(524,-200,l),
(524,56,l),
(529,56,l),
(553,10.667,o),
(592,-12,o),
(644,-12,cs),
(764.424,-12,o),
(812,70.851,o),
(812,262,cs),
(812,452.507,o),
(764.312,537,o),
(644,537,cs),
(592,537,o),
(553,513.667,o),
(529,467,c),
(524,467,l),
(524,710,l),
(376,710,l),
(376,467,l),
(371,467,l),
(347,513.667,o),
(308,537,o),
(256,537,cs),
(179,537,o),
(129,501,o),
(106,421,cs),
(94,380,o),
(88,327,o),
(88,262,cs),
(88,116,o),
(110,-12,o),
(256,-12,cs),
(308,-12,o),
(347,10.667,o),
(371,56,c),
(376,56,l),
(376,-200,l)
);
},
{
closed = 1;
nodes = (
(261.667,94,o),
(240,131,o),
(240,211,cs),
(240,314,ls),
(240,394,o),
(261.667,431,o),
(315,431,cs),
(358.617,431,o),
(376,407.48,o),
(376,373,cs),
(376,152,ls),
(376,117.52,o),
(358.617,94,o),
(315,94,cs)
);
},
{
closed = 1;
nodes = (
(541.383,94,o),
(524,117.52,o),
(524,152,cs),
(524,373,ls),
(524,407.48,o),
(541.383,431,o),
(585,431,cs),
(639.667,431,o),
(660,394,o),
(660,314,cs),
(660,211,ls),
(660,131,o),
(639.667,94,o),
(585,94,cs)
);
}
);
width = 900;
}
);
note = uni0444;
unicode = 1092;
},
{
glyphname = "sha-cy";
kernLeft = uni0432;
kernRight = uni0430.alt01;
lastChange = "2025-11-13 20:10:32 +0000";
layers = (
{
guides = (
{
angle = 90;
pos = (54,677);
},
{
angle = 90;
pos = (54,677);
},
{
angle = 90;
pos = (846,677);
}
);
layerId = "A5F3D33E-00A1-4213-AAE8-48E0A2B2F36F";
shapes = (
{
closed = 1;
nodes = (
(799,516,l),
(719,516,l),
(719,73,l),
(490,73,l),
(490,516,l),
(410,516,l),
(410,73,l),
(181,73,l),
(181,516,l),
(101,516,l),
(101,0,l),
(799,0,l)
);
}
);
userData = {
assembly = "NPUSHB[ ]	/* 15 values pushed */
7 3 3 0 10 114 1 2 114 5 2 114 9 2 114
SVTCA[0]	/* SetFreedomAndProjectionVectorToAxis */
CALL[ ]	/* CallFunction */
CALL[ ]	/* CallFunction */
CALL[ ]	/* CallFunction */
CALL[ ]	/* CallFunction */
SHP[0]	/* ShiftPointByLastPoint */
SRP1[ ]	/* SetRefPoint1 */
SHP[1]	/* ShiftPointByLastPoint */
IUP[0]	/* InterpolateUntPts */
IUP[1]	/* InterpolateUntPts */";
};
width = 900;
},
{
layerId = "C7B35BE3-AA13-4B78-992E-F05F1268D666";
shapes = (
{
closed = 1;
nodes = (
(749,506,l),
(728,506,l),
(728,20,l),
(460,20,l),
(460,506,l),
(439,506,l),
(439,20,l),
(171,20,l),
(171,506,l),
(150,506,l),
(150,0,l),
(749,0,l)
);
}
);
width = 900;
},
{
guides = (
{
angle = 90;
pos = (450,-131);
}
);
layerId = "055264FC-C366-4C37-95B8-CB5161C9C36E";
shapes = (
{
closed = 1;
nodes = (
(828,525,l),
(680,525,l),
(680,115,l),
(524,115,l),
(524,525,l),
(376,525,l),
(376,115,l),
(220,115,l),
(220,525,l),
(72,525,l),
(72,0,l),
(828,0,l)
);
}
);
width = 900;
}
);
note = uni0448;
unicode = 1096;
},
{
glyphname = "shcha-cy";
kernLeft = uni0432;
kernRight = uni0434;
lastChange = "2025-11-13 20:11:35 +0000";
layers = (
{
layerId = "A5F3D33E-00A1-4213-AAE8-48E0A2B2F36F";
shapes = (
{
closed = 1;
nodes = (
(842,73,l),
(756,73,l),
(756,516,l),
(676,516,l),
(676,73,l),
(462,73,l),
(462,516,l),
(382,516,l),
(382,73,l),
(168,73,l),
(168,516,l),
(88,516,l),
(88,0,l),
(769,0,l),
(769,-140,l),
(842,-140,l)
);
}
);
userData = {
assembly = "NPUSHB[ ]	/* 17 values pushed */
13 9 5 5 0 2 10 114 3 2 114 7 2 114 11 2 114
SVTCA[0]	/* SetFreedomAndProjectionVectorToAxis */
CALL[ ]	/* CallFunction */
CALL[ ]	/* CallFunction */
CALL[ ]	/* CallFunction */
CALL[ ]	/* CallFunction */
SHP[0]	/* ShiftPointByLastPoint */
SHP[0]	/* ShiftPointByLastPoint */
SRP1[ ]	/* SetRefPoint1 */
SHP[1]	/* ShiftPointByLastPoint */
SHP[1]	/* ShiftPointByLastPoint */
IUP[0]	/* InterpolateUntPts */
IUP[1]	/* InterpolateUntPts */";
};
width = 900;
},
{
layerId = "C7B35BE3-AA13-4B78-992E-F05F1268D666";
shapes = (
{
closed = 1;
nodes = (
(794,20,l),
(719,20,l),
(719,506,l),
(698,506,l),
(698,20,l),
(445,20,l),
(445,506,l),
(424,506,l),
(424,20,l),
(171,20,l),
(171,506,l),
(150,506,l),
(150,0,l),
(773,0,l),
(773,-140,l),
(794,-140,l)
);
}
);
width = 900;
},
{
layerId = "055264FC-C366-4C37-95B8-CB5161C9C36E";
shapes = (
{
closed = 1;
nodes = (
(864,115,l),
(774,115,l),
(774,525,l),
(626,525,l),
(626,115,l),
(495,115,l),
(495,525,l),
(347,525,l),
(347,115,l),
(216,115,l),
(216,525,l),
(68,525,l),
(68,0,l),
(730,0,l),
(730,-140,l),
(864,-140,l)
);
}
);
width = 900;
}
);
note = uni0449;
unicode = 1097;
},
{
color = 0;
glyphname = "lje-cy";
kernLeft = uni043B;
kernRight = uni044A;
lastChange = "2025-11-13 09:20:25 +0000";
layers = (
{
layerId = "A5F3D33E-00A1-4213-AAE8-48E0A2B2F36F";
shapes = (
{
closed = 1;
nodes = (
(145.667,0,o),
(174.667,8.667,o),
(200,34,cs),
(242.92,76.92,o),
(271,177.931,o),
(271,367,cs),
(271,446,l),
(444,446,l),
(444,0,l),
(662,0,ls),
(768.562,0,o),
(831,61.629,o),
(831,164,cs),
(831,264.342,o),
(767.039,329,o),
(661,329,cs),
(524,329,l),
(524,516,l),
(195,516,l),
(195,369,ls),
(195,207.432,o),
(176.912,122.112,o),
(140,70,c),
(72,70,l),
(72,0,l),
(103,0,l),
(103,0,l)
);
},
{
closed = 1;
nodes = (
(650,259,ls),
(710,259,o),
(745,239.333,o),
(745,186,cs),
(745,144,ls),
(745,90.667,o),
(710,70,o),
(650,70,cs),
(524,70,l),
(524,259,l),
(524,259,l)
);
}
);
width = 900;
},
{
layerId = "C7B35BE3-AA13-4B78-992E-F05F1268D666";
shapes = (
{
closed = 1;
nodes = (
(156.667,0,o),
(166.667,3.667,o),
(176,13,cs),
(248,85,o),
(263,249,o),
(263,355,cs),
(263,487,l),
(475,487,l),
(475,0,l),
(647,0,ls),
(758.013,0,o),
(803,66.98,o),
(803,147,cs),
(803,231.303,o),
(753.028,293,o),
(647,293,cs),
(496,293,l),
(496,506,l),
(242,506,l),
(242,355,ls),
(242,249,o),
(227,90,o),
(156,19,c),
(99,19,l),
(99,0,l),
(142,0,l),
(142,0,l)
);
},
{
closed = 1;
nodes = (
(647,274,ls),
(737.667,274,o),
(780,220,o),
(780,160,cs),
(780,133,ls),
(780,73,o),
(737.667,19,o),
(647,19,cs),
(496,19,l),
(496,274,l),
(496,274,l)
);
}
);
width = 900;
},
{
layerId = "055264FC-C366-4C37-95B8-CB5161C9C36E";
shapes = (
{
closed = 1;
nodes = (
(148.667,-6,o),
(188,6,o),
(220,38,cs),
(267.19,85.19,o),
(293,178.651,o),
(293,351,cs),
(293,410,l),
(408,410,l),
(408,0,l),
(683,0,ls),
(779.888,0,o),
(864,60.566,o),
(864,185,cs),
(864,307.564,o),
(782.729,369,o),
(683,369,cs),
(556,369,l),
(556,525,l),
(151,525,l),
(151,359,ls),
(151,224.446,o),
(137.157,153.987,o),
(109,115,c),
(41,115,l),
(41,-6,l),
(86,-6,l),
(86,-6,l)
);
},
{
closed = 1;
nodes = (
(651,264,ls),
(689.667,264,o),
(715,242.667,o),
(715,204,cs),
(715,165,ls),
(715,126.333,o),
(689.667,105,o),
(651,105,cs),
(556,105,l),
(556,264,l),
(556,264,l)
);
}
);
width = 900;
}
);
note = uni0459;
unicode = 1113;
},
{
glyphname = "nje-cy";
kernLeft = uni0432;
kernRight = uni044A;
lastChange = "2025-11-13 20:15:20 +0000";
layers = (
{
layerId = "A5F3D33E-00A1-4213-AAE8-48E0A2B2F36F";
shapes = (
{
closed = 1;
nodes = (
(176,231,l),
(418,231,l),
(418,0,l),
(636,0,ls),
(742.562,0,o),
(805,61.629,o),
(805,164,cs),
(805,264.342,o),
(741.039,329,o),
(635,329,cs),
(498,329,l),
(498,516,l),
(418,516,l),
(418,301,l),
(176,301,l),
(176,516,l),
(96,516,l),
(96,0,l),
(176,0,l),
(176,0,l)
);
},
{
closed = 1;
nodes = (
(624,259,ls),
(684,259,o),
(719,239.333,o),
(719,186,cs),
(719,144,ls),
(719,90.667,o),
(684,70,o),
(624,70,cs),
(498,70,l),
(498,259,l),
(498,259,l)
);
}
);
width = 900;
},
{
layerId = "C7B35BE3-AA13-4B78-992E-F05F1268D666";
shapes = (
{
closed = 1;
nodes = (
(150,265,l),
(444,265,l),
(444,0,l),
(616,0,ls),
(718.516,0,o),
(772,54.347,o),
(772,142,cs),
(772,229.653,o),
(718.516,284,o),
(616,284,cs),
(465,284,l),
(465,506,l),
(444,506,l),
(444,284,l),
(150,284,l),
(150,506,l),
(129,506,l),
(129,0,l),
(150,0,l),
(150,0,l)
);
},
{
closed = 1;
nodes = (
(616,265,ls),
(706.667,265,o),
(749,216,o),
(749,156,cs),
(749,128,ls),
(749,68,o),
(706.667,19,o),
(616,19,cs),
(465,19,l),
(465,265,l),
(465,265,l)
);
}
);
width = 900;
},
{
layerId = "055264FC-C366-4C37-95B8-CB5161C9C36E";
shapes = (
{
closed = 1;
nodes = (
(216,209,l),
(387,209,l),
(387,0,l),
(662,0,ls),
(758.888,0,o),
(843,60.566,o),
(843,185,cs),
(843,307.564,o),
(761.729,369,o),
(662,369,cs),
(535,369,l),
(535,525,l),
(387,525,l),
(387,324,l),
(216,324,l),
(216,525,l),
(68,525,l),
(68,0,l),
(216,0,l),
(216,0,l)
);
},
{
closed = 1;
nodes = (
(630,264,ls),
(668.667,264,o),
(694,242.667,o),
(694,204,cs),
(694,165,ls),
(694,126.333,o),
(668.667,105,o),
(630,105,cs),
(535,105,l),
(535,264,l),
(535,264,l)
);
}
);
width = 900;
}
);
note = uni045A;
unicode = 1114;
},
{
color = 0;
glyphname = "yu-cy";
kernLeft = uni0432;
kernRight = uni0431;
lastChange = "2025-11-16 20:37:06 +0000";
layers = (
{
layerId = "A5F3D33E-00A1-4213-AAE8-48E0A2B2F36F";
shapes = (
{
closed = 1;
nodes = (
(734,-12,o),
(829,89,o),
(829,258,cs),
(829,427,o),
(734,528,o),
(585,528,cs),
(450,528,o),
(358,444,o),
(344,300,c),
(204,300,l),
(204,516,l),
(124,516,l),
(124,0,l),
(204,0,l),
(204,232,l),
(342,232,l),
(352,79,o),
(446,-12,o),
(585,-12,cs)
);
},
{
closed = 1;
nodes = (
(493,59,o),
(434,106,o),
(434,221,cs),
(434,295,ls),
(434,410,o),
(493,457,o),
(585,457,cs),
(677,457,o),
(736,410,o),
(736,295,cs),
(736,221,ls),
(736,106,o),
(677,59,o),
(585,59,cs)
);
}
);
width = 900;
},
{
layerId = "C7B35BE3-AA13-4B78-992E-F05F1268D666";
shapes = (
{
closed = 1;
nodes = (
(734,-12,o),
(791,106,o),
(791,253,cs),
(791,401,o),
(733,518,o),
(587,518,cs),
(466,518,o),
(390,434,o),
(383,275,c),
(243,275,l),
(243,506,l),
(222,506,l),
(222,0,l),
(243,0,l),
(243,256,l),
(383,256,l),
(383,80,o),
(459,-12,o),
(587,-12,cs)
);
},
{
closed = 1;
nodes = (
(471,7,o),
(406,96,o),
(406,229,cs),
(406,277,ls),
(406,412,o),
(471,499,o),
(587,499,cs),
(703,499,o),
(768,412,o),
(768,277,cs),
(768,229,ls),
(768,96,o),
(703,7,o),
(587,7,cs)
);
}
);
width = 900;
},
{
layerId = "055264FC-C366-4C37-95B8-CB5161C9C36E";
shapes = (
{
closed = 1;
nodes = (
(750,-12,o),
(836,93,o),
(836,263,cs),
(836,435,o),
(747,537,o),
(595,537,cs),
(460,537,o),
(377,457,o),
(358,324,c),
(267,324,l),
(267,525,l),
(119,525,l),
(119,0,l),
(267,0,l),
(267,209,l),
(357,209,l),
(374,72,o),
(458,-12,o),
(595,-12,cs)
);
},
{
closed = 1;
nodes = (
(538,105,o),
(508,144,o),
(508,209,cs),
(508,316,ls),
(508,383,o),
(538,420,o),
(595,420,cs),
(654,420,o),
(682,383,o),
(682,316,cs),
(682,209,ls),
(682,144,o),
(654,105,o),
(595,105,cs)
);
}
);
width = 900;
}
);
note = uni044E;
unicode = 1102;
},
{
color = 0;
glyphname = "aie-cy";
kernLeft = uni0436;
kernRight = uni0436;
lastChange = "2025-11-13 09:20:25 +0000";
layers = (
{
guides = (
{
pos = (672,247);
}
);
layerId = "A5F3D33E-00A1-4213-AAE8-48E0A2B2F36F";
shapes = (
{
closed = 1;
nodes = (
(308,-12,o),
(363,19,o),
(395,55,cs),
(410,73,o),
(419,89,o),
(422,104,c),
(428,104,l),
(436,73,o),
(469,34,o),
(524,8,cs),
(551,-5,o),
(583,-12,o),
(619,-12,cs),
(708.333,-12,o),
(780.667,35.333,o),
(814,106,c),
(757,146,l),
(729,88.667,o),
(681.667,58,o),
(615,58,cs),
(519,58,o),
(462,124.667,o),
(462,214,cs),
(462,238,l),
(833,238,l),
(833,276,ls),
(833,428.076,o),
(747.102,528,o),
(619,528,cs),
(530,528,o),
(449,473,o),
(433,413,c),
(427,413,l),
(406,493,o),
(347,528,o),
(265,528,cs),
(172,528,o),
(108,482,o),
(81,427,c),
(129,383,l),
(158.333,431,o),
(197.667,459,o),
(263,459,cs),
(341.667,459,o),
(382,419.333,o),
(382,346,cs),
(382,298,l),
(280,298,ls),
(151,298,o),
(60,253,o),
(60,142,cs),
(60,48.667,o),
(127,-12,o),
(231,-12,cs)
);
},
{
closed = 1;
nodes = (
(183,56,o),
(144,85.333,o),
(144,136,cs),
(144,157,ls),
(144,207.667,o),
(185.333,235.333,o),
(276,238,cs),
(382,238,l),
(382,150,l),
(382,99,o),
(327.407,56,o),
(247,56,cs)
);
},
{
closed = 1;
nodes = (
(462,305,l),
(462,305,l),
(462,396.286,o),
(523.539,461,o),
(610,461,cs),
(690.75,461,o),
(747,402.928,o),
(747,309,cs),
(747,298,l),
(462,298,l)
);
}
);
width = 900;
},
{
layerId = "C7B35BE3-AA13-4B78-992E-F05F1268D666";
shapes = (
{
closed = 1;
nodes = (
(304,-12,o),
(356,7,o),
(390,42,cs),
(410,63,o),
(423,89,o),
(429,121,c),
(432,121,l),
(464,35,o),
(528,-11,o),
(620,-12,cs),
(621,-12,o),
(623,-12,o),
(624,-12,cs),
(721.333,-12,o),
(787.667,41.333,o),
(817,124,c),
(799,131,l),
(768.333,49.667,o),
(709.333,7,o),
(624,7,cs),
(504,7,o),
(435,93,o),
(435,229,cs),
(435,256,l),
(825,256,l),
(825,266,ls),
(825,420.381,o),
(742.686,518,o),
(620,518,cs),
(529.583,518,o),
(461.624,468.898,o),
(432,382,c),
(429,382,l),
(421.093,468.975,o),
(366.24,518,o),
(268,518,cs),
(174.667,518,o),
(125,477.333,o),
(97,412,c),
(115,404,l),
(143,470.667,o),
(192,499,o),
(268,499,cs),
(362.667,499,o),
(412,453,o),
(412,349,cs),
(412,275,l),
(270,275,ls),
(131.354,275,o),
(80,218.014,o),
(80,130,cs),
(80,39.333,o),
(139,-12,o),
(243,-12,cs)
);
},
{
closed = 1;
nodes = (
(161.667,7,o),
(103,45.667,o),
(103,115,cs),
(103,145,ls),
(103,211.667,o),
(152.333,257,o),
(271,257,cs),
(412,257,l),
(412,148,ls),
(412,60.676,o),
(343.716,7,o),
(243,7,cs)
);
},
{
closed = 1;
nodes = (
(435,275,l),
(435,277,ls),
(435,416.6,o),
(503.958,499,o),
(620,499,cs),
(728.821,499,o),
(802,411.115,o),
(802,279,cs),
(802,275,l),
(435,275,l)
);
}
);
width = 900;
},
{
guides = (
{
pos = (718,287);
}
);
layerId = "055264FC-C366-4C37-95B8-CB5161C9C36E";
shapes = (
{
closed = 1;
nodes = (
(282,-12,o),
(330,6,o),
(362,35,cs),
(379,51,o),
(392,70,o),
(400,91,c),
(406,91,l),
(418,66,o),
(439,43,o),
(468,25,cs),
(505,2,o),
(553,-12,o),
(610,-12,cs),
(706,-12,o),
(783.333,21.667,o),
(830,75,c),
(756,167,l),
(726.667,137.667,o),
(688.333,106,o),
(627,106,cs),
(551,106,o),
(507,149,o),
(507,217,cs),
(507,225,l),
(845,225,l),
(845,269,ls),
(845,431,o),
(767,537,o),
(605,537,cs),
(526.321,537,o),
(468.066,511.541,o),
(437,463,c),
(431,463,l),
(398.578,515.686,o),
(346.48,537,o),
(283,537,cs),
(173.667,537,o),
(113.667,499.667,o),
(71,437,c),
(159,359,l),
(181.667,391,o),
(213.333,421,o),
(272,421,cs),
(334.667,421,o),
(359,388.667,o),
(359,338,cs),
(359,312,l),
(276,312,ls),
(143.968,312,o),
(51,256.709,o),
(51,144,cs),
(51,54.667,o),
(109.667,-12,o),
(215,-12,cs)
);
},
{
closed = 1;
nodes = (
(223,91,o),
(200,113.333,o),
(200,152,cs),
(200,166,ls),
(200,204.667,o),
(233.667,225,o),
(287,225,cs),
(359,225,l),
(359,159,l),
(359,113.09,o),
(320.481,91,o),
(271,91,cs)
);
},
{
closed = 1;
nodes = (
(508,320,l),
(508,320,l),
(508,388.756,o),
(547.823,428,o),
(604,428,cs),
(663.872,428,o),
(692,385.243,o),
(692,321,cs),
(692,312,l),
(508,312,l)
);
}
);
width = 900;
}
);
note = uni0436;
unicode = 1237;
},
{
color = 0;
glyphname = "zhe-cy.loclBGR";
kernLeft = uni0436;
kernRight = uni0436;
lastChange = "2025-11-13 09:20:25 +0000";
layers = (
{
guides = (
{
pos = (672,247);
}
);
layerId = "A5F3D33E-00A1-4213-AAE8-48E0A2B2F36F";
shapes = (
{
closed = 1;
nodes = (
(199,0,l),
(318,232,l),
(410,232,l),
(410,0,l),
(490,0,l),
(490,232,l),
(582,232,l),
(701,0,l),
(789,0,l),
(682,209,ls),
(674,225,o),
(664,238,o),
(653,247,cs),
(642,256,o),
(629,262,o),
(616,264,c),
(616,268,l),
(627,272,o),
(637,277,o),
(646,284,cs),
(659,294,o),
(671,309,o),
(681,327,cs),
(783,516,l),
(699,516,l),
(582,300,l),
(490,300,l),
(490,740,l),
(410,740,l),
(410,300,l),
(318,300,l),
(201,516,l),
(116,516,l),
(218,327,ls),
(228,309,o),
(241,295,o),
(256,284,cs),
(265,277,o),
(276,272,o),
(286,268,c),
(286,264,l),
(273,262,o),
(261,257,o),
(250,248,cs),
(238,239,o),
(227,225,o),
(219,209,cs),
(112,0,l)
);
}
);
width = 900;
},
{
layerId = "C7B35BE3-AA13-4B78-992E-F05F1268D666";
shapes = (
{
closed = 1;
nodes = (
(168,0,l),
(325,261,l),
(439,261,l),
(439,0,l),
(460,0,l),
(460,261,l),
(574,261,l),
(731,0,l),
(756,0,l),
(619,229,ls),
(610,244,o),
(603,255,o),
(599,260,cs),
(594,265,o),
(589,268,o),
(583,269,c),
(583,272,l),
(588,273,o),
(593,276,o),
(598,281,cs),
(602,286,o),
(608,295,o),
(617,308,cs),
(750,506,l),
(725,506,l),
(574,280,l),
(460,280,l),
(460,740,l),
(439,740,l),
(439,280,l),
(325,280,l),
(173,506,l),
(148,506,l),
(282,308,ls),
(291.333,294.667,o),
(298,285.667,o),
(302,281,cs),
(306,276.333,o),
(310.667,273.333,o),
(316,272,c),
(316,269,l),
(310,268,o),
(305,265,o),
(301,260,cs),
(297,255,o),
(290,245,o),
(280,229,cs),
(143,0,l)
);
}
);
width = 900;
},
{
guides = (
{
pos = (718,287);
}
);
layerId = "055264FC-C366-4C37-95B8-CB5161C9C36E";
shapes = (
{
closed = 1;
nodes = (
(202,0,l),
(320,209,l),
(380,209,l),
(380,0,l),
(520,0,l),
(520,209,l),
(580,209,l),
(698,0,l),
(859,0,l),
(733,223,ls),
(726,236,o),
(717,246,o),
(708,253,cs),
(699,260,o),
(688,265,o),
(676,268,c),
(676,273,l),
(687,276,o),
(696,281,o),
(704,288,cs),
(714,296,o),
(722,307,o),
(730,320,cs),
(843,525,l),
(691,525,l),
(580,324,l),
(520,324,l),
(520,740,l),
(380,740,l),
(380,324,l),
(320,324,l),
(209,525,l),
(56,525,l),
(168,320,ls),
(176,307,o),
(184,297,o),
(194,289,cs),
(203,282,o),
(213,276,o),
(224,273,c),
(224,268,l),
(214,266,o),
(206,262,o),
(198,257,cs),
(187,249,o),
(177,238,o),
(168,223,cs),
(42,0,l)
);
}
);
width = 900;
}
);
note = uni0436;
},
{
color = 0;
glyphname = "sha-cy.loclBGR";
kernLeft = uni0438.loclBGR;
kernRight = uni0430.alt01;
lastChange = "2025-11-13 09:20:25 +0000";
layers = (
{
layerId = "A5F3D33E-00A1-4213-AAE8-48E0A2B2F36F";
shapes = (
{
closed = 1;
nodes = (
(352,-12,o),
(402.333,37,o),
(421,93,c),
(423,93,l),
(451,19.667,o),
(513,-12,o),
(581,-12,cs),
(661,-12,o),
(697.333,30.667,o),
(720,84,c),
(724,84,l),
(724,0,l),
(804,0,l),
(804,516,l),
(724,516,l),
(724,158,ls),
(724,95.517,o),
(669.872,60,o),
(601,60,cs),
(525,60,o),
(490,107,o),
(490,199,cs),
(490,516,l),
(410,516,l),
(410,158,ls),
(410,95.32,o),
(357.494,60,o),
(289,60,cs),
(211.667,60,o),
(176,108.333,o),
(176,199,cs),
(176,516,l),
(96,516,l),
(96,185,ls),
(96,59.667,o),
(158.667,-12,o),
(264,-12,cs)
);
}
);
width = 900;
},
{
layerId = "C7B35BE3-AA13-4B78-992E-F05F1268D666";
shapes = (
{
closed = 1;
nodes = (
(377.667,-12,o),
(430.333,34.667,o),
(449,100,c),
(453,100,l),
(473,26.667,o),
(530.667,-12,o),
(612,-12,cs),
(701.333,-12,o),
(747.667,30.667,o),
(765,76,c),
(768,76,l),
(768,0,l),
(789,0,l),
(789,506,l),
(768,506,l),
(768,144,ls),
(768,58.362,o),
(705.001,7,o),
(614,7,cs),
(516.667,7,o),
(460,62.667,o),
(460,184,cs),
(460,506,l),
(439,506,l),
(439,146,ls),
(439,60.378,o),
(376.021,7,o),
(285,7,cs),
(185,7,o),
(131,62.667,o),
(131,184,cs),
(131,506,l),
(110,506,l),
(110,181,ls),
(110,55.667,o),
(169.667,-12,o),
(283,-12,cs)
);
}
);
width = 900;
},
{
layerId = "055264FC-C366-4C37-95B8-CB5161C9C36E";
shapes = (
{
closed = 1;
nodes = (
(306,-12,o),
(367.333,35.333,o),
(386,94,c),
(389,94,l),
(411.667,24.667,o),
(464,-12,o),
(536,-12,cs),
(614.667,-12,o),
(658.333,33,o),
(677,89,c),
(683,89,l),
(683,0,l),
(831,0,l),
(831,525,l),
(683,525,l),
(683,185,ls),
(683,135.841,o),
(642.362,108,o),
(596,108,cs),
(548,108,o),
(524,140,o),
(524,208,cs),
(524,525,l),
(376,525,l),
(376,185,ls),
(376,135.738,o),
(337.397,108,o),
(289,108,cs),
(239.667,108,o),
(217,140,o),
(217,208,cs),
(217,525,l),
(69,525,l),
(69,196,ls),
(69,64,o),
(124.667,-12,o),
(226,-12,cs)
);
}
);
width = 900;
}
);
note = uni0448.loclBGR;
},
{
color = 0;
glyphname = "shcha-cy.loclBGR";
kernLeft = uni0438.loclBGR;
kernRight = uni0434;
lastChange = "2025-11-13 09:20:25 +0000";
layers = (
{
layerId = "A5F3D33E-00A1-4213-AAE8-48E0A2B2F36F";
shapes = (
{
closed = 1;
nodes = (
(874,70,l),
(783,70,l),
(783,516,l),
(703,516,l),
(703,158,ls),
(703,95.517,o),
(648.872,60,o),
(580,60,cs),
(504,60,o),
(469,107,o),
(469,199,cs),
(469,516,l),
(389,516,l),
(389,158,ls),
(389,95.32,o),
(336.494,60,o),
(268,60,cs),
(190.667,60,o),
(155,108.333,o),
(155,199,cs),
(155,516,l),
(75,516,l),
(75,185,ls),
(75,59.667,o),
(137.667,-12,o),
(243,-12,cs),
(331,-12,o),
(381.333,37,o),
(400,93,c),
(402,93,l),
(430,19.667,o),
(492,-12,o),
(560,-12,cs),
(640,-12,o),
(676.333,30.667,o),
(699,84,c),
(733,84,l),
(700,114,l),
(701.333,98.667,o),
(702.5,88,o),
(703.5,82,cs),
(704.5,76,o),
(705.333,71.667,o),
(706,69,cs),
(716.667,27.667,o),
(740,0,o),
(792,0,cs),
(798,0,l),
(798,-140,l),
(874,-140,l),
(874,-140,l)
);
}
);
width = 900;
},
{
layerId = "C7B35BE3-AA13-4B78-992E-F05F1268D666";
shapes = (
{
closed = 1;
nodes = (
(855,19,l),
(770,19,l),
(770,506,l),
(749,506,l),
(749,144,ls),
(749,58.362,o),
(686.001,7,o),
(595,7,cs),
(497.667,7,o),
(441,62.667,o),
(441,184,cs),
(441,506,l),
(420,506,l),
(420,146,ls),
(420,60.378,o),
(357.021,7,o),
(266,7,cs),
(166,7,o),
(112,62.667,o),
(112,184,cs),
(112,506,l),
(91,506,l),
(91,181,ls),
(91,55.667,o),
(150.667,-12,o),
(264,-12,cs),
(358.667,-12,o),
(411.333,34.667,o),
(430,100,c),
(434,100,l),
(454,26.667,o),
(511.667,-12,o),
(593,-12,cs),
(682.333,-12,o),
(728.667,30.667,o),
(746,76,c),
(759,76,l),
(749,86,l),
(749,73.333,o),
(749,62.667,o),
(749,54,cs),
(749,45.333,o),
(749,37,o),
(749,29,cs),
(749,9,o),
(758,0,o),
(778,0,cs),
(834,0,l),
(834,-140,l),
(855,-140,l),
(855,-140,l)
);
}
);
width = 900;
},
{
layerId = "055264FC-C366-4C37-95B8-CB5161C9C36E";
shapes = (
{
closed = 1;
nodes = (
(889,115,l),
(799,115,l),
(799,525,l),
(651,525,l),
(651,185,ls),
(651,135.841,o),
(610.362,108,o),
(564,108,cs),
(516,108,o),
(492,140,o),
(492,208,cs),
(492,525,l),
(344,525,l),
(344,185,ls),
(344,135.738,o),
(305.397,108,o),
(257,108,cs),
(207.667,108,o),
(185,140,o),
(185,208,cs),
(185,525,l),
(37,525,l),
(37,196,ls),
(37,64,o),
(92.667,-12,o),
(194,-12,cs),
(274,-12,o),
(335.333,35.333,o),
(354,94,c),
(357,94,l),
(379.667,24.667,o),
(432,-12,o),
(504,-12,cs),
(582.667,-12,o),
(626.333,33,o),
(645,89,c),
(681,89,l),
(649,119,l),
(649,102.333,o),
(650,90.167,o),
(652,82.5,cs),
(654,74.833,o),
(655.667,69.333,o),
(657,66,cs),
(673,24.667,o),
(706.667,0,o),
(748,0,cs),
(761,0,l),
(761,-140,l),
(889,-140,l),
(889,-140,l)
);
}
);
width = 900;
}
);
note = uni0449.loclBGR;
},
{
color = 0;
glyphname = "yu-cy.loclBGR";
kernRight = uni0431;
lastChange = "2025-11-13 09:20:25 +0000";
layers = (
{
layerId = "A5F3D33E-00A1-4213-AAE8-48E0A2B2F36F";
shapes = (
{
closed = 1;
nodes = (
(679.255,-12,o),
(767,89.326,o),
(767,258,cs),
(767,426.674,o),
(679.255,528,o),
(541,528,cs),
(415.667,528,o),
(330.333,444,o),
(317,300,c),
(218,300,l),
(218,740,l),
(138,740,l),
(138,0,l),
(218,0,l),
(218,232,l),
(315,232,l),
(324.333,78.667,o),
(411.667,-12,o),
(541,-12,cs)
);
},
{
closed = 1;
nodes = (
(455.667,59,o),
(401,106.333,o),
(401,221,cs),
(401,295,ls),
(401,409.667,o),
(455.667,457,o),
(541,457,cs),
(626.333,457,o),
(681,409.667,o),
(681,295,cs),
(681,221,ls),
(681,106.333,o),
(626.333,59,o),
(541,59,cs)
);
}
);
width = 900;
},
{
layerId = "C7B35BE3-AA13-4B78-992E-F05F1268D666";
shapes = (
{
closed = 1;
nodes = (
(668,-12,o),
(725,106,o),
(725,253,cs),
(725,401,o),
(667,518,o),
(521,518,cs),
(399.667,518,o),
(323.667,433.667,o),
(317,275,c),
(197,275,l),
(197,740,l),
(176,740,l),
(176,0,l),
(197,0,l),
(197,256,l),
(317,256,l),
(317,80,o),
(393,-12,o),
(521,-12,cs)
);
},
{
closed = 1;
nodes = (
(405,7,o),
(340,95.667,o),
(340,229,cs),
(340,277,ls),
(340,411.667,o),
(405,499,o),
(521,499,cs),
(637,499,o),
(702,411.667,o),
(702,277,cs),
(702,229,ls),
(702,95.667,o),
(637,7,o),
(521,7,cs)
);
}
);
width = 900;
},
{
layerId = "055264FC-C366-4C37-95B8-CB5161C9C36E";
shapes = (
{
closed = 1;
nodes = (
(717.527,-12,o),
(804,93.191,o),
(804,263,cs),
(804,434.976,o),
(715.122,537,o),
(563,537,cs),
(428.333,537,o),
(344.667,457.333,o),
(326,324,c),
(245,324,l),
(245,740,l),
(97,740,l),
(97,0,l),
(245,0,l),
(245,209,l),
(325,209,l),
(342.333,71.667,o),
(425.667,-12,o),
(563,-12,cs)
);
},
{
closed = 1;
nodes = (
(505.667,105,o),
(476,143.667,o),
(476,209,cs),
(476,316,ls),
(476,382.667,o),
(505.667,420,o),
(563,420,cs),
(621.667,420,o),
(650,382.667,o),
(650,316,cs),
(650,209,ls),
(650,143.667,o),
(621.667,105,o),
(563,105,cs)
);
}
);
width = 900;
}
);
note = uni044E.loclBGR;
},
{
color = 0;
export = 0;
glyphname = "yeru-cy";
kernLeft = uni0432;
kernRight = uni0430.alt01;
lastChange = "2025-11-13 09:20:25 +0000";
layers = (
{
layerId = "A5F3D33E-00A1-4213-AAE8-48E0A2B2F36F";
shapes = (
{
closed = 1;
nodes = (
(483,0,o),
(545,62,o),
(545,164,cs),
(545,264,o),
(481,329,o),
(375,329,cs),
(198,329,l),
(198,516,l),
(118,516,l),
(118,0,l),
(376,0,l),
(376,0,l)
);
},
{
closed = 1;
nodes = (
(364,259,ls),
(424,259,o),
(459,239,o),
(459,186,cs),
(459,144,ls),
(459,91,o),
(424,70,o),
(364,70,cs),
(198,70,l),
(198,259,l),
(198,259,l)
);
},
{
closed = 1;
nodes = (
(762,516,l),
(682,516,l),
(682,0,l),
(762,0,l)
);
}
);
width = 900;
},
{
layerId = "C7B35BE3-AA13-4B78-992E-F05F1268D666";
shapes = (
{
closed = 1;
nodes = (
(493.324,0,o),
(547,56.912,o),
(547,147,cs),
(547,236.172,o),
(493.539,293,o),
(391,293,cs),
(240,293,l),
(240,506,l),
(219,506,l),
(219,0,l),
(391,0,l),
(391,0,l)
);
},
{
closed = 1;
nodes = (
(391,274,ls),
(481.667,274,o),
(524,220,o),
(524,160,cs),
(524,133,ls),
(524,73,o),
(481.667,19,o),
(391,19,cs),
(240,19,l),
(240,274,l),
(240,274,l)
);
},
{
closed = 1;
nodes = (
(681,506,l),
(660,506,l),
(660,0,l),
(681,0,l)
);
}
);
width = 900;
},
{
layerId = "055264FC-C366-4C37-95B8-CB5161C9C36E";
shapes = (
{
closed = 1;
nodes = (
(486.888,0,o),
(571,60.566,o),
(571,185,cs),
(571,307.564,o),
(489.729,369,o),
(390,369,cs),
(263,369,l),
(263,525,l),
(115,525,l),
(115,0,l),
(390,0,l),
(390,0,l)
);
},
{
closed = 1;
nodes = (
(358,264,ls),
(396.667,264,o),
(422,242.667,o),
(422,204,cs),
(422,165,ls),
(422,126.333,o),
(396.667,105,o),
(358,105,cs),
(263,105,l),
(263,264,l),
(263,264,l)
);
},
{
closed = 1;
nodes = (
(786,525,l),
(638,525,l),
(638,0,l),
(786,0,l)
);
}
);
width = 900;
}
);
note = uni044B;
unicode = 1099;
},
{
color = 0;
glyphname = Phi;
lastChange = "2025-11-13 09:20:25 +0000";
layers = (
{
layerId = "A5F3D33E-00A1-4213-AAE8-48E0A2B2F36F";
shapes = (
{
closed = 1;
nodes = (
(492,31,l),
(510,31,ls),
(711.948,31,o),
(822,168.841,o),
(822,354,cs),
(822,539.159,o),
(711.948,677,o),
(510,677,cs),
(492,677,l),
(492,725,l),
(408,725,l),
(408,677,l),
(390,677,ls),
(188.052,677,o),
(78,539.159,o),
(78,354,cs),
(78,168.841,o),
(188.052,31,o),
(390,31,cs),
(408,31,l),
(408,-29,l),
(492,-29,l),
(492,-29,l)
);
},
{
closed = 1;
nodes = (
(253.334,101,o),
(168,195.683,o),
(168,323,cs),
(168,385,ls),
(168,512.317,o),
(253.334,607,o),
(390,607,cs),
(410,607,l),
(410,101,l),
(390,101,l),
(390,101,l)
);
},
{
closed = 1;
nodes = (
(510,607,ls),
(646.666,607,o),
(732,512.317,o),
(732,385,cs),
(732,323,ls),
(732,195.683,o),
(646.666,101,o),
(510,101,cs),
(490,101,l),
(490,607,l),
(490,607,l)
);
}
);
width = 900;
},
{
layerId = "C7B35BE3-AA13-4B78-992E-F05F1268D666";
shapes = (
{
closed = 1;
nodes = (
(461,37,l),
(497,37,ls),
(687.729,37,o),
(797,155.901,o),
(797,354,cs),
(797,552.099,o),
(687.729,671,o),
(497,671,cs),
(461,671,l),
(461,725,l),
(439,725,l),
(439,671,l),
(403,671,ls),
(212.271,671,o),
(103,552.099,o),
(103,354,cs),
(103,155.901,o),
(212.271,37,o),
(403,37,cs),
(439,37,l),
(439,-29,l),
(461,-29,l),
(461,-29,l)
);
},
{
closed = 1;
nodes = (
(231,57,o),
(127,172,o),
(127,324,cs),
(127,384,ls),
(127,525,o),
(218,651,o),
(403,651,cs),
(439,651,l),
(439,57,l),
(403,57,l),
(403,57,l)
);
},
{
closed = 1;
nodes = (
(497,651,ls),
(682,651,o),
(773,524,o),
(773,384,cs),
(773,324,ls),
(773,163,o),
(662,57,o),
(497,57,cs),
(461,57,l),
(461,651,l),
(461,651,l)
);
}
);
width = 900;
},
{
guides = (
{
angle = 90;
pos = (450,-166);
}
);
layerId = "055264FC-C366-4C37-95B8-CB5161C9C36E";
shapes = (
{
closed = 1;
nodes = (
(528,32,l),
(538,32,ls),
(719.973,32,o),
(835,156.949,o),
(835,355,cs),
(835,551.198,o),
(719.988,676,o),
(538,676,cs),
(528,676,l),
(528,740,l),
(374,740,l),
(374,676,l),
(364,676,ls),
(182.91,676,o),
(67,550.983,o),
(67,353,cs),
(67,156.864,o),
(182.893,32,o),
(364,32,cs),
(374,32,l),
(374,-44,l),
(528,-44,l),
(528,-44,l)
);
},
{
closed = 1;
nodes = (
(296.6,157,o),
(223,215.568,o),
(223,323,cs),
(223,385,ls),
(223,492.432,o),
(296.6,551,o),
(367,551,cs),
(377,551,l),
(377,157,l),
(367,157,l),
(367,157,l)
);
},
{
closed = 1;
nodes = (
(535,551,ls),
(605.4,551,o),
(679,492.432,o),
(679,385,cs),
(679,323,ls),
(679,215.568,o),
(605.4,157,o),
(535,157,cs),
(525,157,l),
(525,551,l),
(525,551,l)
);
}
);
width = 900;
}
);
note = Phi;
unicode = 934;
},
{
color = 0;
glyphname = Psi;
lastChange = "2025-11-13 09:20:25 +0000";
layers = (
{
layerId = "A5F3D33E-00A1-4213-AAE8-48E0A2B2F36F";
shapes = (
{
closed = 1;
nodes = (
(492,0,l),
(492,0,l),
(492,203,l),
(667.365,203,o),
(777,290.687,o),
(777,468,cs),
(777,698,l),
(693,698,l),
(693,468,ls),
(693,324,o),
(605,273,o),
(492,273,c),
(492,698,l),
(408,698,l),
(408,273,l),
(277,273,o),
(207,339,o),
(207,468,cs),
(207,698,l),
(123,698,l),
(123,468,ls),
(123,290.687,o),
(232.635,203,o),
(408,203,c),
(408,0,l)
);
}
);
width = 900;
},
{
layerId = "C7B35BE3-AA13-4B78-992E-F05F1268D666";
shapes = (
{
closed = 1;
nodes = (
(461,0,l),
(461,0,l),
(461,208,l),
(653,208,o),
(745,288,o),
(745,480,cs),
(745,698,l),
(723,698,l),
(723,478,ls),
(723,286,o),
(622,228,o),
(461,228,c),
(461,698,l),
(439,698,l),
(439,228,l),
(261,228,o),
(177,300,o),
(177,478,cs),
(177,698,l),
(155,698,l),
(155,480,ls),
(155,283,o),
(252,208,o),
(439,208,c),
(439,0,l)
);
}
);
width = 900;
},
{
layerId = "055264FC-C366-4C37-95B8-CB5161C9C36E";
shapes = (
{
closed = 1;
nodes = (
(528,0,l),
(528,0,l),
(528,176,l),
(718.591,176,o),
(805,288.807,o),
(805,469,cs),
(805,698,l),
(653,698,l),
(653,469,ls),
(653,346.915,o),
(611.921,301,o),
(528,301,c),
(528,698,l),
(374,698,l),
(374,301,l),
(263,301,o),
(249,389,o),
(249,469,cs),
(249,698,l),
(97,698,l),
(97,469,ls),
(97,288.807,o),
(183.409,176,o),
(374,176,c),
(374,0,l)
);
}
);
width = 900;
}
);
note = Psi;
unicode = 936;
},
